 <svg  version="1.0" xmlns="http://www.w3.org/2000/svg"  width="300.000000pt" height="300.000000pt" viewBox="0 0 300.000000 300.000000"  preserveAspectRatio="xMidYMid meet">  <g transform="translate(0.000000,300.000000) scale(0.100000,-0.100000)" fill="#0550b3" stroke="none"> <path d="M1290 2676 c-117 -16 -256 -56 -375 -108 -49 -22 -103 -43 -118 -48 -31 -10 -166 -88 -205 -118 -22 -17 -23 -21 -12 -60 9 -29 10 -52 2 -81 -10 -40 -9 -42 29 -76 21 -19 39 -41 39 -47 0 -7 13 -24 30 -38 29 -24 29 -26 15 -54 -20 -37 -19 -40 10 -72 14 -15 25 -37 25 -50 0 -12 11 -44 25 -71 14 -26 29 -73 35 -103 6 -30 16 -60 24 -65 10 -8 11 -16 5 -28 -17 -29 -25 -19 -38 41 -7 31 -24 71 -37 88 -27 37 -115 84 -156 84 -26 0 -27 -2 -21 -32 8 -43 36 -98 60 -120 29 -26 91 -49 116 -43 18 5 24 0 34 -26 23 -59 -40 -109 -139 -109 -37 0 -60 21 -51 46 7 22 -26 37 -59 28 -66 -19 -98 -114 -59 -177 25 -41 96 -91 121 -84 39 10 40 -9 1 -83 -51 -99 -56 -125 -32 -149 10 -10 22 -20 27 -22 5 -2 24 -32 42 -67 28 -54 32 -72 32 -135 -1 -43 -6 -82 -15 -97 -22 -38 -18 -75 11 -109 31 -37 69 -41 108 -10 32 25 34 68 6 124 -49 96 0 263 90 310 16 8 47 15 69 15 33 0 44 -6 69 -36 49 -59 57 -106 57 -334 0 -113 -4 -228 -9 -257 -8 -50 -7 -53 22 -83 37 -37 74 -39 107 -5 30 29 32 58 5 95 -31 44 -40 116 -40 329 0 224 7 252 50 206 14 -15 26 -44 31 -73 4 -26 21 -83 38 -127 17 -44 31 -91 31 -104 0 -13 13 -39 30 -58 22 -25 30 -44 30 -72 0 -30 6 -42 25 -55 13 -9 32 -30 40 -47 9 -16 27 -34 40 -39 14 -6 25 -18 25 -28 0 -28 55 -99 91 -118 45 -23 102 -5 130 39 20 32 20 39 3 150 -9 52 15 87 59 87 45 0 77 25 77 59 0 16 7 34 15 41 8 7 15 24 15 39 0 15 9 35 21 44 11 10 19 28 18 40 -3 27 11 80 23 88 5 3 10 41 11 85 2 66 6 84 26 111 52 70 121 67 141 -6 12 -46 5 -84 -21 -123 -33 -46 -24 -100 22 -123 38 -20 62 -19 90 4 23 18 24 26 24 133 0 109 1 116 28 157 38 57 119 96 183 87 77 -10 105 47 64 132 -25 52 -25 74 0 97 10 9 22 37 26 62 12 82 -38 164 -131 211 l-40 20 34 0 c44 -1 70 32 71 88 0 53 -45 117 -94 135 -20 7 -36 16 -36 19 0 3 14 17 31 29 29 22 31 26 25 70 -5 41 -3 50 16 68 13 12 32 23 43 25 18 3 19 12 20 104 l2 102 -50 32 c-134 88 -397 189 -597 230 -132 27 -391 35 -530 16z m520 -31 c103 -22 102 -21 91 -42 -27 -55 -41 -98 -41 -129 0 -28 -3 -35 -15 -30 -32 12 -131 35 -175 41 -131 17 -179 20 -217 15 -42 -6 -43 -6 -38 21 3 15 0 31 -7 35 -7 4 -8 3 -4 -5 15 -24 -21 -58 -69 -65 -41 -7 -100 -28 -163 -59 -18 -9 -25 -8 -32 3 -4 7 -6 18 -4 25 3 6 -2 28 -11 48 -8 20 -13 37 -10 37 3 0 -5 11 -17 25 -12 14 -26 25 -31 25 -4 0 -1 -7 7 -15 9 -9 21 -34 27 -55 7 -22 16 -40 20 -40 4 0 6 -8 4 -17 -2 -10 -4 -23 -4 -29 -1 -6 -18 -16 -39 -22 -21 -6 -53 -26 -72 -43 -19 -17 -52 -39 -72 -50 l-38 -19 0 28 c0 37 -45 127 -76 151 l-23 18 87 40 c132 61 256 98 397 119 118 17 422 11 525 -11z m371 -115 c13 -7 25 -14 27 -15 2 -2 -45 -78 -83 -132 -9 -13 -22 -23 -30 -23 -23 0 -105 43 -99 52 3 4 -1 5 -9 2 -15 -6 -83 10 -105 24 -12 8 0 58 38 156 l9 25 114 -38 c62 -21 125 -44 138 -51z m148 -71 c42 -22 87 -48 100 -58 l23 -18 -39 -74 c-42 -78 -68 -95 -101 -66 -28 24 -116 84 -151 101 l-32 17 31 37 c46 55 47 57 54 80 10 31 28 28 115 -19z m-1514 4 c34 -36 62 -89 70 -133 5 -32 3 -37 -27 -54 -18 -11 -38 -20 -45 -20 -6 -1 -21 -13 -33 -29 -12 -15 -26 -24 -32 -21 -7 4 -8 2 -4 -4 4 -7 -5 -24 -20 -39 -26 -26 -27 -26 -41 -7 -10 12 -14 13 -11 4 3 -8 15 -20 29 -27 21 -11 25 -10 31 6 9 26 132 122 198 155 30 16 69 41 85 56 34 32 117 71 95 45 -7 -8 -19 -15 -26 -15 -8 0 -14 -5 -14 -12 0 -6 -3 -9 -6 -5 -4 3 -12 1 -19 -6 -17 -16 -85 -73 -110 -91 -11 -8 -17 -18 -12 -22 4 -4 27 7 51 25 25 17 51 30 58 29 7 -2 12 4 10 14 -3 22 75 63 149 79 29 6 66 17 83 25 l31 13 -35 1 c-24 0 -31 3 -21 9 7 5 22 6 34 3 11 -3 18 -1 14 4 -3 5 4 11 16 12 35 3 71 9 82 12 22 6 95 5 95 -2 0 -5 -19 -8 -42 -8 -43 -1 -159 -28 -124 -29 11 -1 60 4 109 10 80 11 91 10 99 -5 10 -18 48 -22 48 -5 0 6 -9 8 -20 4 -11 -4 -20 -2 -20 4 0 18 38 12 49 -6 7 -14 13 -15 21 -6 8 7 22 8 43 2 46 -13 77 -11 77 5 0 9 8 12 28 8 l27 -6 -25 -6 c-23 -6 -21 -8 15 -15 50 -10 85 -29 38 -21 -18 3 -32 2 -32 -2 7 -47 -22 -75 -50 -47 -15 15 -13 19 14 42 l30 26 -30 -7 c-17 -4 -41 -8 -55 -8 l-25 0 22 -11 c17 -7 22 -16 19 -34 -3 -13 -1 -21 4 -18 5 3 16 -5 24 -17 9 -12 16 -17 16 -10 0 6 7 12 15 12 8 0 15 -8 15 -17 0 -16 1 -16 16 -1 14 13 15 22 6 47 -11 30 -10 31 21 31 35 -1 139 -42 145 -58 1 -5 -9 -17 -23 -26 -27 -18 -34 -61 -15 -96 13 -25 0 -32 -61 -32 -37 0 -49 -4 -49 -15 0 -12 3 -13 14 -4 11 9 15 8 20 -5 10 -27 -15 -35 -43 -13 -17 13 -28 16 -35 9 -17 -17 -25 -11 -18 13 5 19 4 20 -11 8 -9 -7 -14 -18 -11 -23 3 -5 -4 -20 -16 -33 -21 -22 -25 -23 -44 -10 -11 8 -25 15 -31 15 -5 0 3 -9 19 -19 25 -16 26 -20 11 -28 -12 -7 -30 -3 -63 15 -40 20 -56 23 -110 18 -102 -9 -147 -44 -187 -146 -30 -77 -31 -95 -5 -137 l20 -33 -22 0 c-12 0 -30 -8 -41 -17 -19 -17 -19 -17 -13 2 3 11 10 44 16 74 6 30 12 57 15 59 3 3 0 11 -6 19 -8 9 -8 13 -1 13 6 0 14 16 18 36 8 45 -9 79 -48 95 -21 8 -27 17 -23 29 3 10 1 21 -5 25 -6 4 -10 -4 -10 -19 0 -14 -4 -26 -10 -26 -5 0 -10 11 -10 24 0 13 -2 31 -5 38 -3 8 6 27 21 41 26 26 26 27 5 27 -12 0 -24 -7 -27 -15 -8 -21 -22 -19 -77 11 -34 18 -60 24 -89 22 -65 -5 -56 -23 10 -23 41 0 59 -4 59 -13 0 -8 -8 -10 -19 -6 -11 3 -36 7 -57 9 -22 1 -44 6 -51 10 -6 4 -14 5 -17 2 -10 -10 56 -37 92 -37 l35 0 -6 -39 c-5 -34 -3 -43 19 -65 27 -27 61 -34 73 -15 4 7 12 -1 20 -20 7 -17 28 -40 46 -52 30 -19 31 -20 7 -15 -17 4 -42 -2 -71 -17 -62 -31 -191 -126 -262 -192 -68 -63 -80 -61 -90 14 -3 27 -18 70 -31 95 -14 26 -25 61 -25 77 0 19 -10 39 -26 56 -18 18 -22 29 -15 36 6 6 11 28 11 48 0 29 -5 39 -21 44 -11 4 -27 22 -35 41 -8 19 -18 34 -22 34 -20 0 -50 40 -45 60 7 26 23 26 23 0 0 -13 7 -20 19 -20 11 0 29 -12 40 -26 12 -15 21 -22 21 -16 0 6 -16 31 -35 56 -31 40 -75 117 -75 130 0 7 103 76 113 76 4 0 5 -6 1 -12 -4 -7 6 2 23 20 38 39 54 40 88 5z m785 12 c31 -8 73 -22 91 -30 l34 -16 -30 5 c-16 2 -68 15 -115 29 -91 27 -76 37 20 12z m263 -57 c15 -7 27 -16 27 -20 0 -4 15 -15 33 -24 20 -10 27 -11 20 -3 -19 19 -16 24 11 24 13 0 22 -3 20 -7 -2 -3 39 -21 91 -38 52 -17 97 -36 101 -41 3 -5 34 -23 69 -41 46 -22 63 -36 62 -49 -1 -11 -5 -19 -10 -19 -5 0 -7 6 -4 14 3 8 -1 17 -9 20 -8 3 -14 0 -15 -7 0 -9 -2 -9 -6 0 -2 7 -23 18 -46 24 -23 6 -44 14 -47 18 -3 3 -19 13 -36 22 -31 17 -38 10 -21 -18 5 -7 6 -13 3 -13 -2 0 -12 -3 -21 -6 -9 -4 -15 -2 -13 5 2 6 -10 22 -27 36 -16 15 -23 23 -15 19 8 -4 23 -14 33 -22 9 -8 17 -11 17 -5 0 12 -95 65 -103 57 -6 -6 -97 39 -136 68 -28 21 -17 23 22 6z m172 -148 c30 -32 45 -75 23 -67 -7 2 -12 11 -10 20 2 12 -2 15 -13 11 -9 -4 -14 -12 -11 -19 3 -8 -8 -12 -37 -11 -40 1 -42 3 -45 34 -2 24 2 38 15 48 28 21 47 17 78 -16z m415 -37 c0 -20 -4 -24 -19 -20 -12 3 -22 -1 -25 -9 -3 -8 -14 -14 -25 -14 -29 0 -32 -12 -20 -70 10 -46 9 -54 -6 -69 -10 -9 -15 -11 -11 -5 4 8 -3 11 -19 10 -27 -1 -33 -11 -12 -19 10 -4 10 -7 0 -18 -11 -11 -13 -10 -13 3 0 8 -9 27 -21 42 -23 29 -74 36 -98 14 -12 -11 -13 -9 -6 7 16 44 23 85 13 91 -14 9 -16 4 -21 -61 -2 -32 -9 -61 -14 -62 -7 -3 -8 8 -4 29 10 45 -6 86 -40 104 -39 20 -38 50 2 59 22 5 36 2 51 -12 12 -10 18 -12 13 -4 -5 9 2 8 23 -5 19 -10 36 -32 43 -51 11 -34 60 -93 77 -93 32 0 18 59 -22 93 -18 16 -18 18 -3 13 10 -3 22 -6 27 -6 5 0 11 -8 13 -17 4 -17 5 -17 6 0 0 10 -6 20 -14 23 -8 4 -15 11 -15 17 0 5 10 2 22 -9 19 -17 21 -17 15 -1 -6 15 3 22 25 18 4 0 19 13 34 29 31 33 44 31 44 -7z m-354 -57 c10 -8 16 -18 12 -22 -4 -4 -3 -13 3 -20 7 -9 5 -14 -10 -19 -12 -3 -21 -11 -21 -16 0 -11 16 -4 43 19 16 14 17 13 17 -10 0 -39 -37 -80 -69 -76 -42 4 -61 26 -61 72 0 46 6 58 35 74 26 15 28 15 51 -2z m-96 -22 c-23 -59 0 -126 47 -139 l28 -8 -30 -7 c-16 -4 -37 -10 -45 -14 -12 -5 -16 0 -15 21 0 24 -4 28 -24 25 -15 -1 -35 7 -51 23 -25 24 -30 25 -56 13 -46 -20 -64 -40 -64 -75 0 -15 -2 -16 -10 -3 -6 9 -10 11 -10 3 0 -8 -7 -10 -17 -6 -15 6 -16 5 -3 -9 8 -9 18 -14 23 -11 10 6 9 -21 -2 -50 -8 -19 -15 -23 -35 -20 -23 5 -26 10 -26 48 0 28 -7 51 -21 69 l-21 27 27 26 c20 20 28 24 34 14 9 -14 58 -13 78 2 6 5 9 16 6 25 -6 14 -4 15 8 5 8 -6 27 -9 42 -6 24 5 28 9 23 29 -5 20 -3 24 18 24 14 0 27 3 29 8 3 4 21 8 41 9 34 3 35 2 26 -23z m312 -26 c-12 -12 -52 11 -52 30 0 9 7 9 31 -4 21 -10 28 -19 21 -26z m-1141 -16 c8 -37 0 -45 -49 -46 -54 -2 -68 54 -18 74 38 16 60 7 67 -28z m619 -3 c-6 -10 -16 -19 -23 -19 -7 0 -6 4 3 10 13 8 13 10 -2 10 -9 0 -18 -5 -20 -12 -3 -9 -6 -9 -11 -1 -5 7 4 17 20 26 34 17 46 12 33 -14z m-310 -39 c8 -5 11 -12 7 -17 -5 -4 -12 -1 -17 7 -7 11 -10 11 -10 2 0 -7 7 -15 15 -18 8 -4 13 -10 10 -14 -3 -5 4 -6 15 -3 11 3 20 0 20 -6 0 -5 8 -8 18 -5 16 5 16 4 -1 -9 -12 -10 -14 -17 -8 -22 16 -9 14 -38 -1 -29 -7 4 -10 4 -6 0 3 -4 10 -8 15 -8 11 1 43 -29 43 -41 0 -5 -7 -7 -15 -4 -8 4 -17 1 -21 -5 -4 -7 -3 -8 4 -4 7 4 12 2 12 -3 0 -6 -7 -11 -16 -11 -8 0 -12 -5 -9 -11 5 -7 13 -5 24 5 10 9 23 16 30 16 7 0 10 4 6 9 -3 6 4 8 15 6 11 -2 20 1 20 6 0 5 10 23 22 39 12 16 18 33 14 37 -4 4 -9 -3 -13 -16 -4 -17 -8 -19 -14 -9 -10 15 -12 34 -3 25 4 -3 13 1 21 9 14 13 17 13 29 -3 7 -10 13 -22 14 -28 0 -5 -4 -4 -9 3 -6 10 -10 9 -14 -7 -3 -12 -1 -19 3 -16 5 3 12 0 16 -6 3 -6 0 -15 -7 -20 -8 -5 -10 -9 -4 -9 5 0 -1 -7 -13 -16 -12 -8 -27 -12 -34 -8 -7 4 -8 3 -4 -4 4 -7 3 -12 -3 -12 -5 0 -12 6 -15 13 -4 6 -4 2 -2 -11 3 -17 1 -22 -9 -18 -8 3 -17 1 -20 -4 -3 -4 -1 -10 3 -12 5 -1 -2 -14 -14 -28 l-24 -25 0 25 c0 20 -2 22 -10 10 -8 -12 -10 -9 -10 13 0 22 -4 27 -25 27 -14 0 -25 -4 -25 -9 0 -16 -44 -20 -67 -6 -16 11 -23 12 -26 2 -3 -6 -6 -2 -6 10 -1 28 -21 41 -21 14 0 -12 -5 -21 -11 -21 -8 0 -7 -5 2 -16 7 -9 14 -23 15 -31 1 -8 9 -20 17 -26 9 -8 12 -19 8 -31 -6 -15 -11 -12 -34 22 -42 65 -53 123 -32 178 16 43 75 120 75 99 0 -6 4 -5 8 1 7 11 42 33 52 34 3 0 12 -4 20 -10z m81 -18 c8 -20 6 -22 -19 -16 -34 8 -46 19 -37 34 11 18 47 7 56 -18z m49 13 c0 -2 -4 -15 -9 -29 -7 -17 -7 -26 2 -30 7 -2 4 -5 -6 -5 -10 -1 -15 -5 -12 -11 3 -6 -1 -7 -9 -4 -9 3 -16 1 -16 -5 0 -11 13 -15 37 -12 16 2 26 -17 19 -34 -7 -19 -36 -8 -36 13 0 8 -3 12 -7 9 -3 -4 -13 3 -21 14 -12 18 -12 23 -1 29 7 5 17 6 21 4 4 -3 5 2 2 10 -3 9 -2 16 4 16 5 0 7 11 4 25 -3 20 -1 24 12 19 9 -3 16 -8 16 -9z m644 -1 c14 -14 14 -19 1 -52 -23 -54 -69 -111 -73 -90 -2 9 6 35 17 57 25 48 25 51 6 51 -15 0 -19 -11 -16 -39 2 -7 -4 -11 -11 -9 -25 9 -21 54 8 77 32 25 47 26 68 5z m-1034 -15 c0 -5 -5 -7 -12 -3 -8 5 -9 2 -5 -9 4 -11 1 -17 -8 -17 -8 0 -15 9 -15 20 0 13 7 20 20 20 11 0 20 -5 20 -11z m431 -14 c5 4 9 -1 9 -9 0 -22 -20 -30 -36 -14 -9 9 -12 22 -8 32 6 17 8 17 16 2 5 -9 13 -14 19 -11z m230 8 c0 -11 3 -13 6 -5 2 6 9 9 14 6 6 -3 5 -12 -3 -21 -7 -8 -12 -41 -13 -73 0 -32 -2 -56 -5 -53 -6 6 -38 -172 -39 -219 -2 -91 60 10 112 182 15 47 32 93 39 103 15 21 77 32 98 18 12 -8 12 -12 -2 -28 -9 -10 -33 -85 -53 -168 -43 -173 -89 -323 -117 -380 -32 -64 -99 -145 -153 -186 -82 -62 -152 -83 -280 -83 -95 -1 -122 3 -197 28 -63 20 -100 39 -133 68 -40 36 -64 42 -32 9 6 -8 0 -6 -15 3 -27 18 -47 51 -26 44 6 -2 24 10 39 26 l28 31 33 -31 c97 -93 291 -120 445 -62 87 32 190 138 228 236 17 44 25 76 19 82 -12 11 -97 -27 -89 -40 4 -6 2 -10 -4 -10 -20 0 -33 43 -29 96 3 30 2 54 -1 54 -3 0 -14 -20 -24 -44 -24 -58 -80 -122 -114 -131 l-28 -7 25 -10 c22 -8 29 -5 54 23 29 33 69 48 59 22 -3 -7 -8 -11 -13 -8 -4 2 -12 -7 -18 -20 -6 -13 -25 -31 -42 -40 -26 -13 -35 -14 -57 -3 -33 16 -41 41 -42 138 -1 92 21 183 56 228 34 45 107 78 139 63 28 -12 30 -9 44 55 16 73 31 105 54 114 31 13 36 12 37 -7z m-604 -30 c3 -8 0 -19 -8 -24 -10 -6 -10 -9 -2 -9 7 0 10 -7 7 -15 -5 -12 -10 -10 -26 10 -10 14 -17 29 -14 34 4 5 1 11 -6 13 -6 2 -8 10 -4 16 9 15 44 -2 53 -25z m873 20 c-1 -22 -28 -42 -49 -36 -22 6 -22 6 6 24 31 19 43 23 43 12z m-200 -27 c0 -7 6 -19 14 -25 11 -10 11 -18 -2 -55 -9 -25 -21 -42 -26 -39 -5 3 -6 2 -3 -4 3 -5 -1 -27 -9 -49 l-15 -39 5 50 c2 27 9 51 15 53 6 2 11 11 11 20 0 15 -2 15 -10 2 -8 -11 -9 -9 -5 10 3 14 7 40 8 57 2 31 17 48 17 19z m437 -58 c33 -31 32 -90 -2 -124 -31 -31 -55 -28 -68 9 -7 21 -4 37 10 66 l19 39 -28 -10 c-30 -11 -58 -53 -58 -87 0 -32 45 -76 119 -115 39 -20 77 -47 86 -59 21 -30 19 -105 -5 -144 -24 -40 -90 -73 -147 -73 -24 0 -43 -4 -43 -9 0 -21 54 -51 91 -51 42 0 71 9 64 19 -2 4 6 7 17 6 15 -1 25 -12 32 -33 6 -17 14 -34 19 -38 11 -12 8 -59 -5 -72 -14 -14 -80 -16 -93 -3 -6 5 -21 11 -35 15 -22 5 -21 4 4 -8 l29 -13 -49 -12 c-50 -12 -111 -54 -116 -81 -2 -8 -9 -21 -15 -28 -18 -18 -21 -93 -9 -180 7 -44 5 -57 -10 -73 -19 -21 -73 -26 -92 -7 -18 18 -14 59 8 93 28 43 28 145 -1 191 -18 29 -26 34 -57 33 l-37 -2 35 -6 35 -7 -42 -5 c-26 -3 -40 -1 -36 6 2 5 -3 1 -12 -10 -9 -11 -21 -19 -26 -18 -5 2 -8 0 -7 -5 3 -8 -32 -64 -46 -74 -5 -3 -6 -35 -3 -71 5 -50 3 -68 -8 -77 -12 -10 -18 -6 -32 21 -56 104 -133 104 -199 0 -28 -44 -29 -52 -34 -192 -4 -115 -2 -145 8 -142 6 3 12 8 12 12 3 107 15 228 26 268 18 64 64 108 103 98 35 -9 61 -34 54 -51 -4 -10 0 -12 11 -8 9 3 16 1 16 -5 0 -6 -8 -11 -17 -12 -11 0 -13 -3 -5 -6 6 -2 12 -15 12 -28 0 -29 -20 -45 -45 -34 -19 7 -19 8 1 8 12 1 24 7 27 15 7 19 -16 38 -36 30 -20 -7 -29 9 -21 41 5 21 11 24 28 19 11 -4 18 -3 14 1 -10 11 -77 15 -83 5 -3 -4 3 -7 12 -6 9 0 18 -4 20 -11 3 -8 -7 -11 -29 -10 l-33 2 0 -68 c0 -38 1 -64 3 -57 3 7 12 6 28 -5 14 -9 30 -13 36 -9 7 4 1 12 -16 21 -27 14 -27 33 0 33 14 0 35 -39 28 -52 -2 -3 9 -12 26 -20 40 -17 41 -57 1 -90 -22 -19 -26 -29 -19 -41 12 -22 -11 -32 -53 -23 -21 4 -31 1 -35 -9 -4 -8 -11 -12 -18 -8 -6 3 -8 3 -4 -1 3 -4 0 -22 -7 -40 -10 -24 -11 -43 -4 -77 6 -24 8 -54 6 -66 -2 -12 1 -24 7 -26 6 -2 -3 -18 -21 -35 -37 -38 -72 -41 -114 -11 -36 26 -37 56 -3 106 26 38 26 38 21 203 -5 184 -6 185 -30 220 -9 13 -17 30 -17 38 0 7 -4 11 -9 8 -5 -3 -11 1 -15 9 -16 42 -114 -12 -103 -57 7 -25 -1 -48 -17 -48 -21 0 -52 42 -65 87 -12 43 -44 83 -67 83 -6 0 -24 16 -38 35 -15 19 -33 35 -41 35 -8 0 -11 7 -8 20 6 23 33 49 33 31 0 -6 3 -10 8 -8 4 1 8 -2 9 -7 7 -34 226 -83 244 -55 5 8 9 9 9 3 0 -16 178 -10 193 6 9 10 8 12 -6 7 -11 -4 -16 -3 -12 3 8 13 35 13 35 0 0 -6 13 -4 33 4 17 7 31 18 30 24 -1 5 4 13 13 16 8 3 12 2 9 -4 -10 -17 12 -11 26 7 12 14 12 16 -1 9 -8 -4 -4 1 10 11 47 35 140 139 140 158 0 4 9 20 20 35 11 16 19 32 18 37 -1 4 4 19 11 31 7 13 15 36 17 50 3 15 9 31 13 37 5 5 11 28 14 50 3 22 21 103 40 180 19 77 38 163 42 192 6 48 8 51 26 40 21 -13 25 -52 9 -106 -13 -46 5 -105 40 -135 37 -31 54 -64 41 -80 -7 -8 -5 -15 8 -23 16 -10 17 -8 14 15 -4 26 -4 26 11 8 17 -22 22 -61 6 -51 -5 3 -7 0 -4 -9 4 -10 0 -14 -13 -12 -10 2 -17 10 -15 20 2 9 -4 16 -12 16 -8 0 -26 15 -40 32 l-25 33 -19 -21 c-19 -20 -19 -21 4 -43 13 -13 24 -28 24 -33 0 -6 11 -8 24 -6 13 3 34 0 46 -7 22 -12 22 -12 -10 -38 -17 -15 -38 -27 -47 -27 -25 0 -70 37 -83 70 -16 38 -35 38 -49 0 -6 -18 -6 -30 0 -30 5 0 9 10 9 23 0 17 2 19 9 7 6 -8 7 -18 5 -22 -3 -4 1 -8 9 -8 7 0 24 -11 37 -25 49 -52 132 -17 172 72 10 24 21 43 24 43 3 0 2 -5 -2 -12 -4 -7 -3 -8 4 -4 7 4 12 13 12 20 0 14 -105 106 -121 106 -16 0 -39 59 -39 98 0 52 33 99 90 129 52 28 91 25 127 -9z m-1129 -26 c2 -7 -2 -11 -10 -10 -8 2 -13 -6 -13 -22 0 -14 -3 -27 -7 -30 -9 -7 -43 -145 -73 -291 -34 -165 -55 -200 -131 -218 l-39 -9 42 -1 c25 -1 48 5 57 14 8 8 19 15 23 15 16 0 41 66 59 154 9 48 19 84 22 82 8 -9 -29 -180 -49 -221 -24 -52 -69 -79 -114 -71 -44 9 -50 19 -47 84 2 51 1 53 -20 46 -12 -4 -45 -9 -72 -13 -50 -6 -51 -6 -88 -75 -56 -102 -83 -133 -159 -182 -37 -24 -70 -44 -73 -44 -25 0 44 169 103 255 12 17 21 32 21 35 0 3 -33 6 -73 8 -91 3 -136 17 -147 47 -19 50 24 125 71 125 31 0 40 -17 14 -26 -8 -4 -15 -12 -15 -19 0 -24 157 -34 197 -12 12 7 51 50 86 97 102 135 327 303 396 298 19 -2 36 -9 39 -16z m-623 -74 c14 -6 25 -16 25 -22 0 -6 -5 -5 -12 2 -39 39 -26 -22 14 -68 25 -29 28 -30 13 -7 -9 16 -14 31 -11 35 3 3 7 3 9 1 47 -59 59 -81 49 -91 -24 -24 -126 62 -132 112 -7 50 2 58 45 38z m70 -48 c16 0 46 -40 39 -52 -3 -4 0 -8 5 -8 6 0 11 -8 11 -17 -1 -12 -17 0 -50 37 -27 30 -50 49 -50 42 0 -7 -5 -10 -11 -7 -6 5 -4 12 8 20 15 11 19 11 26 -1 4 -8 14 -14 22 -14z m725 16 c0 -16 -34 -31 -49 -21 -6 3 -8 12 -4 20 7 19 53 20 53 1z m899 -31 c16 -20 16 -20 -6 -1 -13 11 -23 26 -22 35 0 14 1 14 6 1 3 -8 13 -24 22 -35z m-800 11 c7 -8 8 -17 3 -20 -12 -7 -19 -54 -31 -201 -6 -61 -13 -118 -17 -128 -7 -20 -58 -50 -68 -40 -8 9 -7 79 3 131 5 23 5 42 1 42 -4 0 -23 -24 -41 -52 -67 -104 -132 -161 -158 -135 -16 16 -14 86 9 222 15 96 23 123 41 138 12 9 29 17 38 17 19 0 41 -19 41 -34 0 -6 -4 -5 -9 3 -6 10 -12 -2 -20 -40 -19 -98 -23 -129 -18 -129 3 0 29 41 57 90 69 120 95 150 130 150 15 0 33 -6 39 -14z m-320 -70 c-9 -8 -10 -7 -5 7 3 10 7 26 7 35 1 9 4 6 6 -7 3 -13 -1 -28 -8 -35z m-6 -87 c-8 -28 -12 -23 -11 12 1 17 4 25 8 18 4 -6 5 -20 3 -30z m982 -30 c4 -10 11 -19 16 -19 6 0 7 -5 4 -10 -5 -8 -11 -7 -21 1 -7 6 -12 15 -9 19 3 4 -2 10 -10 14 -8 3 -15 10 -15 15 0 17 29 0 35 -20z m-175 -37 c-6 -2 -10 -14 -10 -26 0 -25 -37 -135 -51 -152 -5 -7 -12 -21 -14 -33 -2 -12 -11 -28 -19 -36 -8 -8 -18 -24 -21 -35 -3 -11 -10 -20 -15 -20 -5 0 -15 -12 -22 -27 -19 -38 -112 -99 -191 -124 -86 -26 -272 -28 -357 -3 -71 21 -149 63 -162 87 -10 19 -9 19 20 -1 120 -86 341 -114 489 -62 155 54 261 181 324 385 14 47 26 70 31 63 4 -7 3 -14 -2 -16z m-200 -80 l38 3 -20 -39 c-47 -92 -219 -229 -249 -199 -12 12 -59 5 -59 -9 0 -7 -37 -9 -98 -6 -87 3 -106 7 -163 36 -78 39 -106 73 -90 108 6 14 11 34 11 44 0 11 5 20 10 20 6 0 10 -12 10 -27 0 -16 9 -43 20 -60 16 -27 26 -33 53 -33 39 0 72 21 97 62 l18 29 21 -30 c44 -61 131 -26 131 52 0 24 3 28 12 19 6 -6 13 -19 15 -27 2 -8 4 -21 6 -29 5 -26 29 -48 41 -36 13 13 27 13 24 -1 -2 -6 3 -14 10 -16 6 -3 12 0 12 5 0 5 20 36 45 68 25 31 45 62 44 68 0 6 -8 0 -17 -14 -9 -13 -31 -40 -48 -58 -26 -28 -37 -34 -57 -28 -27 6 -61 35 -53 43 2 3 12 0 22 -5 36 -20 124 30 140 81 6 18 7 18 21 -3 12 -17 23 -21 53 -18z m-297 -48 c-10 -21 -26 -40 -36 -42 -17 -3 -17 -2 2 17 11 11 24 40 27 63 6 36 9 39 16 22 7 -15 4 -32 -9 -60z m956 29 c-16 -19 -87 -53 -109 -52 -8 0 8 11 36 23 28 13 55 29 58 35 4 6 12 11 18 11 6 0 5 -7 -3 -17z m-1102 -35 c-30 -44 -63 -76 -81 -80 -30 -5 -29 16 1 34 16 9 41 30 57 47 33 35 47 34 23 -1z m-740 -42 c0 -12 -16 -12 -74 0 -42 8 -24 19 25 16 30 -2 49 -8 49 -16z m328 4 c3 -5 -4 -11 -17 -11 -13 -1 -35 -2 -50 -3 -17 -1 -28 3 -28 11 0 16 86 18 95 3z m-124 -63 c-6 -6 -11 -20 -11 -31 0 -10 -3 -16 -7 -13 -7 7 -48 -53 -45 -65 1 -5 -3 -8 -9 -8 -5 0 -7 -5 -3 -12 4 -7 3 -8 -5 -4 -16 10 -41 -12 -34 -30 3 -8 0 -14 -7 -14 -6 0 -8 6 -4 13 4 7 3 9 -2 4 -5 -5 -9 -14 -9 -20 0 -7 -9 -12 -20 -13 -48 -2 -56 -4 -51 -12 3 -5 -1 -9 -9 -9 -27 0 -16 14 26 32 51 23 126 105 165 179 23 44 30 52 32 35 2 -12 -1 -26 -7 -32z m109 23 c-9 -6 -10 -10 -3 -10 6 0 21 -13 33 -30 19 -27 19 -29 3 -23 -17 6 -17 5 1 -16 17 -19 21 -20 28 -6 14 24 55 19 62 -7 6 -23 77 -103 97 -110 7 -2 2 -19 -13 -43 -23 -39 -23 -45 -23 -305 0 -260 0 -266 23 -294 27 -35 28 -72 3 -86 -30 -15 -56 -12 -76 10 -16 18 -16 26 -5 102 17 108 7 410 -15 486 -9 30 -31 70 -49 90 -30 32 -38 36 -83 35 -109 -2 -184 -96 -192 -240 -2 -59 1 -80 18 -113 24 -47 26 -68 7 -93 -19 -25 -75 -26 -92 -2 -18 24 -18 54 1 98 8 20 15 65 15 101 0 54 -5 75 -34 129 l-34 64 41 13 c25 7 61 30 91 58 45 44 98 114 102 137 1 6 7 22 13 38 9 24 16 27 53 27 32 0 39 -3 28 -10z m680 -284 c0 -2 -11 -6 -25 -8 -14 -3 -25 -1 -25 3 0 5 11 9 25 9 14 0 25 -2 25 -4z m-345 -104 c6 -4 16 -18 23 -31 12 -20 12 -25 0 -32 -10 -7 -10 -9 2 -9 12 -1 11 -3 -3 -11 -20 -12 -14 -29 12 -29 10 0 26 -9 36 -20 30 -33 61 -26 81 19 10 22 20 39 23 39 3 -1 15 3 25 7 15 6 25 2 43 -20 13 -15 22 -34 19 -42 -3 -8 -1 -11 4 -8 6 3 10 -1 10 -9 0 -12 -5 -13 -31 -4 -37 13 -44 7 -45 -43 -1 -27 2 -39 12 -39 8 0 11 6 8 15 -4 8 -1 22 5 29 9 11 9 15 -1 19 -11 4 23 3 55 -2 4 0 7 -67 7 -148 0 -146 -1 -149 -28 -191 l-29 -42 -13 40 c-9 27 -19 40 -31 40 -10 0 -25 13 -34 29 -8 17 -25 37 -37 45 -20 14 -21 19 -10 53 6 20 9 39 7 42 -3 2 -5 -2 -5 -9 0 -23 -69 64 -70 87 0 13 -9 46 -20 74 -10 29 -17 55 -15 59 3 4 -2 13 -11 20 -12 11 -12 15 -2 21 10 7 10 9 1 9 -7 0 -13 11 -13 25 0 25 7 30 25 17z m225 -31 c0 -5 -9 -7 -19 -4 -13 3 -29 -4 -45 -21 -31 -30 -35 -20 -6 12 20 22 70 31 70 13z m262 -15 c3 2 5 -6 4 -18 -1 -16 -7 -23 -20 -23 -25 0 -34 25 -9 26 16 1 16 2 1 6 -10 2 -18 9 -18 14 0 6 7 6 19 0 10 -6 21 -8 23 -5z m128 -57 c-6 -10 -9 -27 -7 -39 1 -15 -5 -25 -19 -30 -19 -7 -21 -6 -16 13 2 12 11 30 20 39 9 11 12 27 8 45 -6 26 -5 27 8 9 11 -13 12 -24 6 -37z m-56 10 c-7 -11 -34 -12 -34 -1 0 14 11 21 26 15 8 -3 11 -9 8 -14z m-177 -106 c-2 -21 -4 -6 -4 32 0 39 2 55 4 38 2 -18 2 -50 0 -70z m173 36 c0 -11 -4 -17 -10 -14 -5 3 -10 15 -10 26 0 11 5 17 10 14 6 -3 10 -15 10 -26z"/> <path d="M1552 2647 c-8 -10 -6 -13 9 -14 10 -1 19 5 19 13 0 17 -14 18 -28 1z"/> <path d="M1410 2640 l-35 -7 38 -2 c20 0 37 4 37 9 0 6 -1 9 -2 9 -2 -1 -19 -5 -38 -9z"/> <path d="M1700 2615 c0 -9 5 -15 11 -13 6 2 11 8 11 13 0 5 -5 11 -11 13 -6 2 -11 -4 -11 -13z"/> <path d="M1217 2614 c-8 -8 1 -24 14 -24 5 0 9 7 9 15 0 15 -12 20 -23 9z"/> <path d="M1496 2598 c5 -8 2 -9 -10 -5 -12 5 -16 3 -14 -5 7 -19 32 -16 36 5 2 9 -2 17 -8 17 -6 0 -8 -5 -4 -12z"/> <path d="M1430 2539 c0 -5 5 -7 10 -4 6 4 18 1 26 -6 8 -6 18 -9 21 -5 9 9 -17 26 -39 26 -10 0 -18 -5 -18 -11z"/> <path d="M950 2392 c0 -15 4 -20 16 -15 9 3 12 9 7 12 -4 3 -11 10 -15 15 -5 5 -8 0 -8 -12z"/> <path d="M1945 2549 c-4 -6 -5 -13 -2 -16 7 -7 27 6 27 18 0 12 -17 12 -25 -2z"/> <path d="M2280 2435 c0 -8 5 -15 10 -15 6 0 10 7 10 15 0 8 -4 15 -10 15 -5 0 -10 -7 -10 -15z"/> <path d="M2186 2393 c-9 -9 -7 -33 3 -33 12 0 22 28 12 34 -5 3 -11 3 -15 -1z"/> <path d="M2280 2370 c0 -6 -10 -15 -22 -20 -20 -9 -20 -10 -3 -8 11 2 25 -1 31 -4 7 -5 10 1 6 17 -4 25 -12 34 -12 15z"/> <path d="M2290 2288 c0 -5 9 -12 20 -15 24 -6 30 -5 30 5 0 11 -50 22 -50 10z"/> <path d="M1470 2430 c19 -13 30 -13 30 0 0 6 -10 10 -22 10 -19 0 -20 -2 -8 -10z"/> <path d="M769 2399 c-23 -19 -23 -20 -2 -10 12 6 25 16 28 21 10 16 -1 12 -26 -11z"/> <path d="M1332 2405 c-7 -12 -12 -15 -12 -6 0 10 -3 11 -13 2 -8 -6 -18 -7 -22 -3 -5 4 -5 1 -1 -5 4 -8 1 -13 -8 -13 -9 0 -16 -4 -16 -10 0 -5 -7 -10 -15 -10 -8 0 -16 -7 -16 -15 -1 -8 -2 -20 -3 -26 -1 -7 18 -13 44 -15 35 -2 40 0 23 6 -25 10 -30 26 -10 33 10 4 10 6 0 6 -7 1 -13 6 -13 12 0 8 18 10 55 7 30 -3 55 -1 55 4 0 4 -10 8 -22 9 -22 1 -22 1 2 9 15 5 18 8 8 9 -9 1 -18 7 -20 13 -3 8 -9 5 -16 -7z"/> <path d="M666 2391 c-5 -7 -3 -18 3 -24 14 -14 20 -6 11 17 -5 15 -9 16 -14 7z"/> <path d="M1473 2377 c-56 -21 -59 -31 -33 -87 15 -32 33 -54 51 -62 15 -7 26 -15 24 -18 -5 -7 101 -3 145 6 19 4 37 7 40 7 3 0 19 16 35 35 29 35 30 35 6 29 -29 -7 -54 5 -101 48 -34 32 -87 56 -119 54 -9 0 -30 -6 -48 -12z m123 -27 c18 -12 36 -30 39 -40 3 -10 15 -22 26 -25 25 -8 25 -25 -1 -18 -11 3 -20 10 -20 15 0 6 -7 8 -15 4 -8 -3 -15 -1 -15 4 0 5 -6 7 -14 4 -9 -4 -20 6 -31 25 -8 17 -18 31 -20 31 -7 0 -1 -33 9 -50 5 -8 -3 -4 -17 9 -15 14 -27 19 -27 13 0 -6 11 -18 23 -27 32 -20 137 -47 156 -40 13 5 13 4 4 -6 -7 -7 -46 -14 -88 -17 -86 -4 -112 7 -145 61 -26 41 -25 44 8 61 38 21 89 19 128 -4z"/> <path d="M1165 2347 c-16 -12 -31 -25 -33 -29 -5 -11 -52 -10 -52 1 0 5 10 12 23 16 15 4 18 8 9 12 -18 7 -47 -21 -38 -36 16 -25 84 -3 118 38 23 27 11 26 -27 -2z"/> <path d="M773 2347 c-3 -5 0 -14 6 -20 9 -9 11 -8 5 6 -5 13 -2 16 10 11 9 -3 16 -2 16 3 0 12 -29 13 -37 0z"/> <path d="M1860 2312 c-14 -2 -29 -8 -35 -13 -9 -9 54 -1 64 7 8 7 -4 10 -29 6z"/> <path d="M1347 2283 c-24 -6 -11 -23 18 -23 29 0 41 16 19 24 -9 3 -16 5 -17 5 -1 -1 -10 -3 -20 -6z"/> <path d="M971 2244 c-13 -13 -19 -24 -14 -24 12 0 48 38 42 44 -2 3 -15 -6 -28 -20z"/> <path d="M730 2235 c-19 -14 -30 -25 -25 -25 6 0 24 11 40 25 39 31 30 31 -15 0z"/> <path d="M875 2228 c-16 -12 -46 -37 -67 -56 -23 -22 -41 -32 -50 -27 -7 5 -10 5 -6 1 3 -4 0 -19 -8 -34 -14 -28 -9 -46 6 -22 7 11 10 8 10 -13 0 -16 -4 -26 -10 -22 -19 12 -10 -53 11 -76 14 -17 19 -19 15 -7 -3 10 -1 20 4 23 6 4 11 0 11 -7 1 -7 2 -20 3 -28 0 -8 7 -14 14 -12 8 1 11 -2 7 -7 -3 -6 4 -15 15 -21 23 -12 18 -32 -5 -24 -8 4 -12 10 -9 16 3 5 -2 8 -11 6 -10 -2 -20 4 -22 12 -4 13 -3 13 6 0 7 -9 11 -10 11 -3 0 17 -17 25 -25 13 -17 -27 7 -56 70 -87 35 -17 67 -28 70 -23 3 5 11 8 18 6 7 -1 9 -1 5 1 -5 3 -8 12 -8 20 0 12 3 13 15 3 21 -18 37 -8 41 25 2 15 8 31 15 35 8 5 5 10 -9 14 -12 4 -19 13 -16 21 3 7 1 16 -5 20 -6 3 -11 0 -11 -7 0 -8 -5 -6 -11 5 -9 15 -12 16 -25 3 -17 -17 -44 -11 -44 10 0 18 -22 14 -38 -8 -19 -26 -28 -22 -45 20 -26 64 -25 117 3 147 13 14 32 25 42 25 10 0 18 5 18 11 0 5 5 7 10 4 6 -4 9 -1 8 6 -2 6 3 14 11 17 9 3 11 0 6 -8 -6 -9 -2 -9 16 0 33 17 38 24 12 16 -18 -6 -20 -4 -16 14 7 25 5 25 -32 -2z m-17 -270 c-3 -14 30 -19 47 -8 6 3 16 5 23 4 6 -1 16 -2 21 -3 5 0 11 -7 14 -15 4 -11 -1 -14 -21 -11 -15 1 -31 -1 -37 -5 -16 -13 -67 1 -61 16 3 8 1 14 -5 14 -6 0 -7 5 -4 10 9 14 25 12 23 -2z m112 -58 c-20 -13 -47 -13 -55 0 -4 6 9 10 32 10 28 0 34 -3 23 -10z m-67 -26 c-4 -12 -8 -12 -21 -2 -10 8 -13 9 -9 1 5 -7 1 -9 -12 -6 -15 4 -17 8 -8 17 15 17 57 8 50 -10z"/> <path d="M1272 2228 c-21 -21 -13 -29 26 -26 25 2 37 8 37 18 0 19 -46 25 -63 8z"/> <path d="M1397 2216 c-4 -9 -14 -16 -22 -16 -9 0 -13 -5 -10 -11 4 -6 -2 -13 -14 -16 -22 -6 -25 -11 -13 -29 11 -16 82 -5 75 12 -4 10 -10 11 -24 3 -10 -5 -19 -6 -19 -1 0 5 11 14 25 20 14 6 25 16 25 21 0 6 6 8 14 5 8 -3 16 -1 20 4 3 5 0 9 -7 9 -7 0 -19 4 -28 7 -10 5 -19 1 -22 -8z"/> <path d="M1445 2190 l-30 -8 35 -2 35 -3 -35 -7 c-36 -8 -33 -12 11 -15 20 -2 25 3 25 22 0 12 -2 22 -5 22 -4 -1 -19 -5 -36 -9z"/> <path d="M939 2148 c0 -22 -1 -22 -9 -3 -7 16 -9 17 -9 3 -1 -23 19 -34 30 -17 12 19 11 39 -1 39 -5 0 -10 -10 -11 -22z"/> <path d="M946 2095 c-13 -19 -13 -23 -2 -19 8 3 16 14 19 25 7 25 3 24 -17 -6z"/> <path d="M1011 2103 c7 -10 9 -15 4 -10 -5 4 -21 -5 -36 -19 -23 -22 -26 -30 -17 -47 10 -19 8 -20 -31 -13 -27 4 -41 2 -41 -4 0 -7 17 -10 43 -8 37 3 42 6 39 26 -2 14 2 22 11 22 15 0 47 41 47 60 0 5 -7 10 -16 10 -14 0 -15 -3 -3 -17z"/> <path d="M1255 2090 c-3 -5 -5 -10 -3 -11 26 -6 35 -4 35 7 0 16 -23 19 -32 4z"/> <path d="M854 2081 c3 -5 -3 -11 -14 -14 -13 -3 -18 -10 -14 -21 8 -22 61 -21 72 2 14 25 4 42 -24 42 -14 0 -23 -4 -20 -9z"/> <path d="M993 1976 c7 -14 20 -26 29 -26 9 0 20 -4 23 -10 9 -15 22 -12 22 5 0 8 -4 15 -9 15 -4 0 -8 7 -8 15 0 8 -6 15 -12 15 -7 0 -23 3 -35 6 -21 6 -21 4 -10 -20z"/> <path d="M1076 1934 c-4 -11 -12 -13 -28 -8 -21 6 -21 5 -9 -10 20 -23 55 -17 59 12 4 25 -13 30 -22 6z"/> <path d="M855 1780 c-4 -6 -11 -8 -16 -5 -5 4 -9 1 -9 -4 0 -6 2 -11 4 -11 2 0 11 -3 19 -6 8 -3 17 2 20 10 7 18 -9 31 -18 16z"/> <path d="M1470 2003 c-30 -9 -59 -26 -55 -33 3 -4 -4 -10 -15 -13 -27 -7 -25 -25 2 -29 27 -4 36 -28 11 -29 -10 0 -13 -3 -5 -6 6 -2 9 -10 6 -16 -5 -8 -2 -8 7 1 7 6 23 12 35 12 12 0 25 -6 27 -12 3 -7 6 -3 6 10 1 19 4 21 21 12 16 -9 18 -8 14 5 -7 18 -26 19 -42 3 -9 -9 -15 -9 -24 1 -9 10 -9 12 -1 7 14 -8 20 1 27 36 3 21 1 25 -14 21 -10 -3 -21 0 -24 6 -4 6 -1 9 7 5 8 -3 18 -1 21 5 4 6 13 8 21 4 8 -3 15 -3 15 0 0 8 -24 14 -40 10z m-10 -43 c11 -7 12 -12 3 -21 -16 -16 -44 -4 -37 16 7 17 13 18 34 5z"/> <path d="M1705 1825 c-16 -7 -41 -25 -55 -39 -21 -23 -25 -37 -25 -89 0 -49 3 -62 15 -62 16 0 93 110 109 156 13 38 -4 52 -44 34z m17 -48 c0 -5 -12 -32 -28 -60 l-29 -52 -3 35 c-2 19 1 36 7 38 6 2 11 9 11 16 0 25 41 47 42 23z"/> <path d="M2056 1422 c-5 -8 -2 -20 8 -31 9 -10 16 -25 16 -33 0 -16 15 -18 37 -5 6 4 15 2 18 -3 5 -8 13 -6 26 6 30 27 23 33 -29 28 -45 -4 -49 -2 -58 23 -7 20 -12 24 -18 15z"/> <path d="M2116 1282 c-8 -14 4 -43 15 -36 5 3 9 0 9 -7 0 -7 2 -10 5 -7 3 3 -1 17 -9 32 -8 15 -17 23 -20 18z"/> <path d="M2171 1274 c-1 -25 27 -40 43 -23 8 9 8 10 -1 5 -7 -4 -13 -2 -13 4 0 6 -4 9 -9 5 -5 -3 -12 3 -14 12 -4 14 -5 14 -6 -3z"/> <path d="M2249 1230 l-44 -41 50 37 c61 44 61 44 48 44 -6 0 -30 -18 -54 -40z"/> <path d="M2017 1253 c-16 -16 -4 -23 39 -23 40 0 45 2 34 15 -13 15 -61 21 -73 8z"/> <path d="M2190 1159 c-6 -11 -10 -27 -8 -35 2 -8 8 1 14 20 12 40 10 46 -6 15z"/> <path d="M2172 1060 c0 -19 2 -27 5 -17 2 9 2 25 0 35 -3 9 -5 1 -5 -18z"/> <path d="M1768 789 c-33 -19 -14 -74 21 -62 9 4 24 14 34 25 16 16 16 18 2 18 -9 0 -23 -7 -31 -15 -21 -20 -30 -19 -30 5 0 11 6 20 13 20 7 0 13 5 13 10 0 12 0 12 -22 -1z"/> <path d="M1611 508 c0 -9 -4 -25 -7 -35 -5 -14 -4 -15 5 -7 7 7 11 22 8 35 -2 13 -5 16 -6 7z"/> <path d="M1030 1717 c-64 -54 -148 -153 -137 -163 3 -3 111 12 154 21 16 4 21 12 21 37 0 18 12 63 25 101 14 37 22 67 19 67 -4 0 -41 -28 -82 -63z m-25 -66 c-33 -33 -62 -57 -65 -55 -5 6 106 114 117 114 4 0 -20 -27 -52 -59z m42 -23 c2 -30 -9 -47 -31 -48 -5 0 -1 9 9 20 10 11 16 23 13 26 -3 3 -15 -6 -26 -20 -11 -15 -26 -26 -33 -26 -7 0 5 18 26 40 21 22 39 40 40 40 0 0 1 -14 2 -32z"/> <path d="M1700 1390 c-6 -12 -9 -24 -7 -27 3 -2 11 5 17 17 6 12 9 24 7 27 -3 2 -11 -5 -17 -17z"/> <path d="M1316 801 c-3 -5 1 -16 8 -27 8 -10 12 -24 9 -31 -3 -8 3 -14 13 -15 11 0 24 -2 29 -2 21 -3 33 -16 38 -43 3 -16 9 -36 12 -45 6 -14 2 -18 -20 -18 -16 0 -24 -4 -20 -11 4 -6 12 -8 19 -6 6 3 22 -17 36 -44 13 -27 28 -49 32 -49 11 0 9 11 -7 40 -19 33 -19 46 0 30 9 -7 18 -10 22 -6 3 3 2 6 -4 6 -11 0 -24 29 -42 97 -7 27 -23 50 -42 65 -17 13 -41 33 -55 45 -13 12 -26 18 -28 14z"/> <path d="M1525 790 c-8 -13 -1 -24 14 -19 6 3 7 10 2 18 -6 10 -10 10 -16 1z"/> <path d="M1502 759 c2 -7 10 -15 17 -17 8 -3 12 1 9 9 -2 7 -10 15 -17 17 -8 3 -12 -1 -9 -9z"/> <path d="M1344 713 c4 -7 16 -18 28 -24 15 -8 19 -8 14 0 -4 6 -2 11 4 11 6 0 8 5 4 11 -4 8 -9 7 -14 -2 -7 -10 -12 -10 -26 2 -11 8 -15 9 -10 2z"/> <path d="M1508 688 c7 -7 16 -7 28 0 14 8 13 10 -10 10 -18 0 -24 -4 -18 -10z"/> <path d="M1500 600 c0 -5 7 -10 15 -10 8 0 15 5 15 10 0 6 -7 10 -15 10 -8 0 -15 -4 -15 -10z"/> <path d="M1501 498 c0 -13 3 -18 5 -11 3 7 12 9 20 6 8 -3 14 -1 14 5 0 8 -22 22 -36 22 -2 0 -4 -10 -3 -22z"/> <path d="M2387 1046 c-16 -17 -16 -19 5 -36 13 -10 25 -16 28 -13 3 2 -4 9 -14 15 -14 8 -15 12 -6 18 7 4 11 13 8 20 -3 9 -9 8 -21 -4z"/> <path d="M1857 379 c-14 -8 -16 -14 -6 -25 19 -23 51 -18 47 8 -4 26 -17 31 -41 17z"/> </g> </svg> 