<?xml version="1.0" standalone="no"?>
<!DOCTYPE svg PUBLIC "-//W3C//DTD SVG 20010904//EN"
 "http://www.w3.org/TR/2001/REC-SVG-20010904/DTD/svg10.dtd">
<svg version="1.0" xmlns="http://www.w3.org/2000/svg"
 width="300.000000pt" height="300.000000pt" viewBox="0 0 300.000000 300.000000"
 preserveAspectRatio="xMidYMid meet">
<metadata>
Created by potrace 1.10, written by Peter Selinger 2001-2011
</metadata>
<g transform="translate(0.000000,300.000000) scale(0.100000,-0.100000)"
fill="#0fbd12" stroke="none">
<path d="M1305 2676 c-122 -17 -165 -27 -275 -64 -157 -54 -291 -116 -398
-185 -53 -33 -62 -44 -57 -61 15 -53 16 -75 7 -109 -10 -35 -8 -38 29 -72 21
-19 39 -41 39 -49 0 -8 13 -24 30 -36 29 -21 30 -22 15 -57 -16 -37 -13 -50
17 -71 10 -7 18 -26 18 -42 0 -15 11 -50 25 -77 14 -26 29 -73 35 -103 10 -54
24 -80 36 -67 4 4 2 12 -3 19 -5 7 -15 38 -22 69 -6 30 -21 72 -31 92 -11 20
-20 51 -20 67 0 20 -9 40 -26 57 -18 18 -22 29 -15 36 6 6 11 23 11 38 0 68
12 90 79 146 36 30 77 60 91 66 14 6 27 14 30 17 3 3 17 11 31 18 14 8 39 25
55 39 40 35 114 67 126 55 6 -6 -3 -12 -27 -16 -22 -5 -33 -11 -29 -18 5 -8 1
-9 -10 -5 -10 4 -15 3 -11 -3 3 -6 2 -10 -3 -10 -4 0 -17 -8 -28 -17 -45 -42
-95 -74 -104 -68 -6 3 -10 2 -10 -4 0 -12 -55 -52 -78 -55 -9 -2 -16 -7 -15
-12 3 -15 -40 -55 -55 -49 -7 2 -10 0 -7 -5 3 -6 2 -10 -3 -10 -5 0 -12 -11
-14 -25 -5 -26 6 -35 15 -12 3 6 6 -4 6 -23 1 -26 -2 -31 -9 -20 -14 22 -13
-32 2 -65 12 -26 34 -36 25 -10 -4 8 -2 17 3 20 10 6 14 -7 11 -33 -1 -7 4
-11 11 -10 6 2 12 -4 13 -12 0 -18 27 -20 33 -2 2 6 -1 12 -8 12 -6 0 -8 5 -5
10 9 14 25 12 22 -2 -1 -7 6 -12 16 -12 18 2 25 -15 7 -17 -5 -1 -16 -2 -22
-3 -7 -1 -12 -7 -11 -14 2 -7 -6 -12 -18 -12 -11 0 -17 5 -14 10 3 6 1 10 -4
10 -6 0 -11 -6 -11 -12 0 -9 -4 -8 -10 2 -5 8 -10 20 -10 25 0 6 4 4 9 -3 7
-11 9 -11 14 0 3 9 -2 14 -14 15 -15 1 -19 -5 -19 -27 0 -25 8 -32 71 -64 81
-41 83 -42 75 -20 -5 14 -4 15 9 4 9 -7 18 -10 22 -6 3 3 1 6 -5 6 -7 0 -12 7
-12 16 0 13 3 14 15 4 17 -14 40 -9 41 11 3 45 5 48 27 45 12 -2 30 -7 40 -11
9 -4 24 -5 32 -1 17 6 21 46 5 46 -5 0 -10 -7 -10 -15 0 -11 -10 -14 -37 -11
-51 5 -73 15 -67 31 3 7 1 16 -5 20 -7 4 -11 -4 -11 -19 0 -13 6 -27 13 -30 6
-2 -5 -3 -25 -1 -21 2 -38 -1 -38 -6 0 -5 -8 -9 -17 -9 -11 0 -14 3 -7 8 6 4
14 16 18 27 6 16 9 17 16 5 7 -11 10 -12 10 -2 0 7 4 11 9 8 5 -4 8 2 6 11 -2
10 -4 20 -4 23 -1 3 -5 -1 -10 -8 -10 -17 -61 -23 -58 -8 3 18 20 26 55 26 40
0 72 -15 72 -35 0 -8 9 -15 19 -15 11 0 23 -4 26 -10 10 -16 21 -12 22 8 1 15
-4 17 -28 14 -16 -2 -29 0 -29 6 0 6 9 8 20 5 11 -3 20 -1 20 5 0 6 -17 13
-38 17 -33 5 -38 10 -40 35 -2 21 1 28 11 24 8 -3 21 6 31 20 20 32 20 46 0
46 -14 0 -15 -3 -3 -17 7 -10 9 -15 4 -10 -5 4 -21 -5 -36 -19 -23 -22 -26
-30 -17 -47 10 -19 8 -20 -30 -13 -26 4 -42 2 -44 -5 -2 -6 -15 -12 -28 -13
-14 0 -25 -7 -25 -15 0 -30 -23 -20 -38 16 -26 66 -25 118 3 148 13 14 31 24
40 23 8 -1 31 7 50 19 19 11 44 24 56 27 12 4 33 20 48 37 15 16 32 27 38 23
6 -4 8 -3 5 3 -3 5 2 17 13 26 16 13 20 14 30 2 10 -12 17 -12 48 1 20 8 50
29 67 46 21 22 24 28 9 20 -11 -6 -26 -18 -34 -26 -7 -9 -21 -16 -32 -16 -10
0 -16 -4 -13 -10 4 -6 -5 -9 -19 -8 -15 1 -26 4 -26 5 0 1 14 10 31 18 18 10
29 22 25 30 -3 10 10 17 47 25 28 6 70 17 92 24 22 8 73 17 113 21 39 4 75 11
78 16 9 15 -208 -19 -236 -36 -6 -4 -25 -8 -43 -10 -36 -4 -40 -6 55 32 20 9
42 12 49 8 8 -5 10 -4 5 3 -7 11 13 16 67 15 9 0 17 4 17 8 0 8 59 12 171 10
48 0 80 -7 120 -26 70 -32 39 -32 -72 1 -81 25 -89 25 -104 10 -15 -15 -13
-16 34 -16 27 0 52 -3 55 -8 2 -4 -24 -7 -59 -6 -35 0 -62 -3 -60 -7 8 -13
155 -10 155 3 0 7 7 3 16 -8 8 -10 13 -13 9 -6 -5 10 0 11 22 6 15 -4 30 -7
33 -6 24 0 30 5 30 23 0 18 3 19 15 9 8 -6 23 -9 33 -6 10 4 32 0 47 -8 16 -8
33 -12 38 -9 6 3 7 1 3 -5 -5 -8 0 -12 13 -12 12 0 21 -7 21 -15 0 -8 5 -15
10 -15 6 0 10 7 10 15 0 13 4 14 20 5 11 -6 26 -8 32 -4 7 4 8 3 4 -4 -4 -7
-1 -13 6 -14 29 -3 34 -4 53 -15 11 -6 37 -16 59 -23 21 -7 58 -25 81 -41 24
-16 48 -29 55 -29 16 0 100 -59 100 -70 0 -15 -11 -12 -27 8 -8 9 -12 12 -9 5
4 -6 0 -14 -6 -16 -10 -4 -10 -6 0 -6 6 -1 12 -6 12 -11 0 -7 -6 -7 -19 -1
-10 6 -21 7 -25 4 -3 -3 -6 -1 -6 5 0 7 6 12 14 12 19 0 28 27 10 34 -8 3 -14
1 -14 -5 0 -6 -7 -3 -16 5 -8 9 -24 16 -34 16 -26 0 -50 10 -50 22 0 5 6 6 13
2 7 -5 7 -2 -2 10 -8 9 -24 22 -35 27 -17 9 -17 7 3 -9 18 -15 21 -21 10 -27
-7 -5 -14 -4 -17 3 -2 6 -10 8 -18 5 -10 -4 -12 0 -8 11 3 9 2 16 -4 16 -14 0
-8 -30 8 -40 9 -6 7 -10 -9 -15 -13 -4 -23 -5 -24 -3 -1 2 -15 18 -32 37 -29
33 -19 34 18 3 9 -8 17 -11 17 -6 0 10 -141 94 -156 94 -5 -1 2 -7 16 -15 14
-8 21 -14 15 -14 -11 -1 -92 43 -137 73 -16 10 -28 14 -28 9 0 -6 -12 -9 -27
-7 -22 3 -20 1 7 -7 19 -6 44 -15 55 -20 16 -8 14 -9 -10 -5 -27 4 -31 2 -33
-22 -2 -24 -16 -41 -35 -42 -5 0 -5 5 -2 10 4 6 1 9 -7 8 -7 -2 -13 4 -13 12
0 8 6 14 13 12 8 -1 11 2 6 9 -5 8 -2 10 8 7 9 -4 15 0 15 8 0 16 -33 19 -43
3 -3 -6 -18 -8 -33 -5 -14 3 -20 3 -13 0 6 -3 10 -10 7 -15 -4 -5 1 -6 10 -3
12 5 16 2 13 -12 -2 -11 -7 -23 -13 -27 -6 -5 -3 -7 7 -3 11 3 23 -3 33 -17 8
-12 15 -16 15 -9 0 7 12 12 28 11 15 0 21 -3 15 -6 -7 -2 -13 -9 -13 -15 0 -6
6 -6 15 2 17 14 21 45 4 34 -8 -5 -8 -1 0 14 8 15 8 22 -2 26 -36 17 85 -6
126 -24 43 -19 59 -40 32 -42 -30 -2 -41 -57 -24 -118 3 -11 -4 -15 -28 -15
-17 0 -29 -3 -26 -7 2 -5 0 -8 -5 -8 -6 0 -12 7 -16 15 -3 8 -1 15 5 15 6 0 7
5 4 10 -9 15 -27 1 -21 -16 3 -8 -1 -14 -9 -14 -8 0 -15 -8 -15 -17 0 -13 3
-14 11 -6 9 9 15 8 27 -3 16 -16 15 -21 -8 -25 -18 -3 -83 35 -74 44 8 8 -18
3 -34 -6 -7 -5 -10 -13 -6 -18 3 -6 -2 -19 -11 -29 -17 -19 -47 -19 -71 1 -8
6 -14 7 -14 2 0 -5 11 -16 25 -23 13 -7 22 -17 19 -22 -3 -4 -10 -6 -15 -3 -9
6 -13 -7 -10 -31 1 -6 -5 -17 -13 -23 -12 -10 -17 -8 -26 8 -8 17 -8 21 2 19
7 -2 16 -7 20 -13 4 -5 6 1 5 14 -3 44 -101 72 -185 52 -73 -18 -115 -58 -146
-139 -31 -81 -32 -97 -6 -139 l20 -33 -22 0 c-12 0 -30 -8 -41 -18 -19 -16
-19 -16 -13 3 13 43 25 124 21 144 -2 12 0 21 5 21 5 0 12 16 16 36 8 45 -9
79 -48 95 -21 8 -27 17 -23 29 3 10 1 21 -5 25 -6 4 -10 -4 -10 -19 0 -14 -4
-26 -10 -26 -5 0 -10 8 -10 19 0 10 -3 33 -7 51 -5 26 -3 31 7 25 8 -5 11 -4
7 2 -4 6 3 14 16 18 20 7 21 7 3 12 -11 3 -25 -2 -31 -11 -16 -21 -22 -20 -68
4 -21 11 -43 17 -49 14 -7 -4 -8 -3 -4 4 10 16 -64 16 -98 1 -24 -11 -27 -29
-5 -29 6 0 8 4 5 9 -3 5 22 8 57 7 44 -1 64 -5 64 -14 0 -7 -7 -10 -16 -8 -77
22 -113 17 -85 -11 14 -15 14 -17 0 -25 -8 -5 -24 -21 -36 -37 -18 -26 -18
-29 -3 -26 10 1 17 9 15 18 -3 18 34 47 63 48 17 1 16 2 -5 9 -21 7 -19 8 17
9 l41 1 -10 -34 c-9 -28 -8 -40 6 -60 18 -29 62 -44 78 -28 17 17 -2 34 -34
30 -60 -9 -58 64 2 77 42 9 62 -8 49 -41 -6 -18 -6 -23 3 -18 7 5 8 3 2 -7
-11 -18 -6 -60 9 -78 7 -8 25 -22 41 -32 l28 -17 -34 1 c-60 2 -234 -119 -351
-243 -38 -39 -70 -70 -72 -68 -1 1 -8 28 -14 57 -6 30 -23 69 -36 87 -28 37
-116 84 -157 84 -26 0 -27 -2 -21 -32 17 -91 90 -164 163 -162 32 1 38 -2 48
-29 10 -25 8 -34 -9 -58 -44 -62 -207 -67 -183 -5 4 10 -2 19 -19 27 -50 23
-117 -44 -117 -118 0 -75 137 -177 172 -128 4 5 9 7 12 4 3 -3 -11 -36 -31
-74 -20 -39 -42 -89 -49 -113 -12 -38 -11 -45 5 -61 10 -10 22 -20 27 -22 5
-2 24 -32 42 -67 27 -53 32 -73 32 -131 0 -38 -7 -84 -15 -104 -21 -51 -19
-71 11 -106 31 -37 69 -41 108 -10 32 25 34 60 6 120 -35 78 -20 193 35 264
53 70 140 87 188 37 53 -55 60 -97 61 -332 1 -118 -3 -238 -7 -266 -8 -46 -6
-54 15 -78 35 -39 80 -45 112 -13 31 31 33 59 6 97 -11 16 -25 54 -31 85 -11
59 -9 459 3 470 8 8 46 -15 54 -35 4 -8 10 -35 14 -60 4 -25 22 -81 39 -125
17 -44 31 -91 31 -104 0 -13 14 -39 30 -58 21 -24 30 -44 30 -69 0 -27 8 -41
35 -65 19 -17 35 -37 35 -45 0 -7 14 -20 30 -29 17 -9 30 -24 30 -34 0 -27 65
-106 99 -120 42 -18 96 1 122 43 20 31 20 38 3 149 -9 52 15 87 59 87 45 0 77
25 77 59 0 16 7 34 15 41 8 7 15 24 15 39 0 15 9 35 21 45 16 13 20 25 16 45
-4 18 1 39 15 62 16 26 20 49 19 97 -2 73 17 122 59 152 58 41 101 18 115 -62
6 -30 2 -48 -19 -88 -38 -73 -32 -110 21 -138 31 -17 54 -15 83 8 24 18 25 23
25 134 0 111 1 115 30 157 39 55 94 83 169 86 94 3 119 44 76 128 -25 49 -25
70 0 97 28 31 36 100 16 152 -20 51 -54 85 -121 121 -64 33 -95 63 -95 89 1
17 3 15 14 -9 7 -17 19 -35 27 -41 19 -15 69 -24 69 -12 0 5 4 7 10 3 5 -3 17
6 26 20 38 58 -8 170 -81 196 -19 7 -35 16 -35 19 0 3 14 17 31 29 29 22 31
26 25 70 -5 41 -3 50 16 68 13 12 32 23 43 25 18 3 20 12 20 102 l1 99 -39 28
c-21 15 -73 44 -115 65 -42 21 -93 45 -112 55 -65 32 -274 98 -376 118 -132
27 -382 35 -519 17z m510 -31 c39 -8 77 -18 85 -22 8 -4 22 -7 30 -8 44 -5
280 -91 280 -102 0 -2 -11 -19 -24 -36 -35 -48 -42 -62 -25 -52 8 5 -2 -8 -21
-28 -19 -20 -41 -37 -50 -37 -17 1 -110 49 -96 50 13 0 -26 29 -39 29 -5 0 -1
-7 10 -16 19 -15 19 -15 -10 -9 -16 4 -42 11 -56 17 -26 10 -27 11 -14 57 7
26 18 60 24 76 8 20 8 33 2 39 -7 7 -12 4 -16 -9 -4 -10 -13 -34 -21 -52 -8
-18 -14 -49 -14 -68 0 -30 -3 -35 -17 -29 -24 9 -129 33 -178 41 -22 3 -46 11
-54 17 -12 9 -13 9 -7 0 5 -9 -1 -11 -21 -8 -47 9 -153 10 -153 3 0 -5 -7 -8
-16 -8 -10 0 -12 4 -7 13 10 16 12 67 3 67 -4 0 -11 -7 -14 -16 -3 -8 -2 -12
4 -9 15 9 12 -7 -5 -32 -9 -13 -30 -23 -58 -27 -41 -6 -150 -46 -164 -60 -10
-10 -35 -7 -28 4 3 6 3 10 -2 10 -4 0 -9 10 -10 23 -6 60 -11 75 -33 100 -13
15 -28 27 -34 27 -8 0 -7 -3 0 -8 15 -9 44 -67 44 -87 0 -8 4 -15 9 -15 5 0 8
-8 6 -17 -2 -10 -4 -24 -4 -30 -1 -7 -7 -13 -14 -13 -7 0 -30 -9 -51 -20 -22
-10 -43 -17 -49 -13 -6 3 -7 2 -4 -4 8 -12 -27 -45 -70 -67 l-33 -17 0 28 c-1
38 -31 101 -67 140 l-30 31 62 30 c84 41 246 97 325 111 148 27 183 30 365 26
121 -3 215 -10 260 -20z m497 -176 c120 -61 157 -95 127 -119 -4 -3 -20 -30
-36 -60 -36 -67 -60 -74 -112 -33 -20 16 -49 37 -64 47 -35 21 -30 30 8 16 24
-9 26 -8 16 3 -9 12 -7 16 8 20 11 2 24 0 29 -5 6 -6 8 1 4 19 -3 15 -7 22
-10 15 -10 -31 -85 -46 -125 -25 l-28 14 31 37 c46 55 47 57 54 80 10 29 25
28 98 -9z m-1489 -15 c48 -54 87 -164 57 -164 -5 0 -25 -14 -45 -31 -19 -17
-35 -26 -35 -21 0 6 6 13 13 15 6 3 7 6 2 6 -6 1 -28 -22 -50 -50 -50 -63 -70
-75 -85 -52 -8 12 -10 13 -7 3 2 -8 13 -19 25 -25 12 -5 22 -13 22 -17 0 -12
-14 -9 -39 8 -16 12 -22 23 -18 40 2 14 0 27 -6 31 -6 3 -7 1 -3 -5 12 -20 -9
-13 -37 11 -20 17 -24 28 -20 50 7 34 23 36 23 2 0 -19 5 -25 17 -23 9 2 26
-10 38 -27 11 -16 26 -31 33 -32 12 -3 -52 92 -69 103 -6 3 -7 15 -4 27 4 14
3 18 -2 9 -7 -8 -14 -1 -27 25 l-18 38 32 25 c43 33 141 89 158 90 8 0 28 -16
45 -36z m307 -94 c0 -5 -8 -10 -18 -10 -17 0 -90 -55 -141 -107 -14 -13 -30
-22 -37 -19 -7 3 -14 2 -16 -2 -2 -4 -19 -18 -38 -31 l-35 -23 33 29 c17 16
32 35 32 41 0 6 6 9 13 6 8 -3 38 14 67 38 53 44 119 88 133 88 4 0 7 -4 7
-10z m875 -40 c3 -5 2 -10 -4 -10 -5 0 -13 5 -16 10 -3 6 -2 10 4 10 5 0 13
-4 16 -10z m432 -32 c-3 -8 -6 -5 -6 6 -1 11 2 17 5 13 3 -3 4 -12 1 -19z
m-402 -18 c28 -29 43 -70 27 -70 -17 0 -22 13 -11 27 9 10 8 13 -4 13 -9 0
-21 -9 -27 -21 -9 -15 -19 -19 -43 -17 -29 3 -32 6 -35 41 -2 28 0 37 12 37 9
0 16 5 16 10 0 20 37 9 65 -20z m417 -35 c2 -14 -3 -20 -17 -20 -11 0 -30 -11
-43 -25 -13 -14 -20 -19 -16 -11 4 9 2 12 -7 9 -10 -4 -13 -17 -10 -44 7 -76
6 -97 -7 -101 -8 -3 -10 1 -5 14 6 16 5 16 -10 5 -9 -8 -21 -11 -27 -7 -5 3
-10 2 -10 -4 0 -5 6 -11 14 -13 10 -2 11 -9 3 -28 l-10 -25 -7 33 c-14 62 -61
88 -111 62 -21 -12 -23 -7 -10 18 4 9 11 32 14 50 5 24 3 32 -8 32 -11 0 -16
-12 -17 -42 -1 -24 -2 -50 -4 -58 -1 -8 -2 -21 -3 -28 -1 -7 -5 -11 -10 -8 -5
3 -5 20 -2 38 10 45 -6 86 -40 104 -39 20 -38 50 2 59 22 5 36 2 51 -12 12
-10 18 -12 13 -4 -5 10 2 8 23 -5 17 -10 36 -31 42 -48 14 -39 58 -96 75 -96
17 0 30 39 18 51 -6 6 -15 4 -23 -5 -11 -14 -15 -13 -31 8 -25 32 -24 41 3 22
30 -21 41 -20 33 4 -6 19 3 25 29 21 5 -1 6 5 3 14 -6 13 4 19 25 16 4 0 19
13 35 29 28 31 39 29 45 -5z m-419 -44 c-21 -14 -43 -57 -43 -84 0 -39 16 -65
53 -87 31 -20 32 -20 7 -20 -14 0 -35 -7 -48 -15 -21 -15 -22 -15 -16 13 6 32
-5 46 -29 36 -16 -6 -13 -27 8 -54 9 -12 8 -24 -5 -58 -9 -23 -19 -40 -22 -36
-4 3 -5 -2 -2 -13 3 -10 -4 -43 -16 -73 l-20 -55 6 60 c6 70 12 95 23 95 11 0
5 113 -7 137 -20 37 -37 45 -68 31 -27 -11 -72 -49 -66 -55 1 -2 2 -11 2 -20
0 -14 -2 -15 -9 -5 -6 10 -10 9 -14 -7 -3 -13 -1 -19 5 -15 7 5 8 -6 3 -32 -4
-21 -8 -40 -8 -41 -1 -1 -14 1 -29 4 -25 5 -28 9 -28 48 0 28 -7 51 -22 70
-20 26 -21 28 -4 41 10 7 16 17 13 21 -3 5 3 10 14 10 10 1 19 -3 19 -8 0 -10
59 -7 77 4 7 4 9 15 6 25 -6 14 -4 15 8 5 8 -6 27 -9 42 -6 24 5 28 9 23 29
-5 20 -3 24 17 24 13 0 27 3 30 7 4 3 21 8 39 10 18 2 36 10 41 18 4 9 13 13
19 9 6 -4 6 -9 1 -13z m58 -12 c11 -5 17 -14 13 -20 -3 -5 -1 -16 6 -24 9 -10
7 -15 -9 -20 -12 -3 -21 -11 -21 -17 0 -6 10 -4 23 5 14 10 21 23 19 38 -2 19
-1 21 7 9 31 -44 -12 -132 -56 -117 -5 1 -7 7 -5 12 2 6 -2 4 -9 -2 -22 -21
-49 13 -49 61 0 46 6 58 35 74 25 14 22 14 46 1z m-951 -13 c0 -2 -11 -6 -25
-8 -13 -3 -22 -1 -19 3 5 9 44 13 44 5z m630 -26 c0 -5 -5 -10 -11 -10 -5 0
-7 5 -4 10 3 6 8 10 11 10 2 0 4 -4 4 -10z m23 -29 c-5 -20 -33 -38 -33 -22 0
5 6 12 13 14 7 4 6 6 -5 6 -9 1 -18 -4 -20 -11 -3 -9 -6 -9 -11 -1 -5 7 4 17
20 26 34 16 43 13 36 -12z m-305 -50 c3 -10 0 -12 -12 -8 -9 4 -16 2 -16 -3 0
-6 8 -10 18 -10 9 0 24 -5 32 -11 12 -9 11 -10 -7 -6 -24 5 -29 -7 -14 -32 6
-9 11 -10 15 -2 4 6 2 11 -5 11 -7 0 -9 3 -6 7 9 8 47 -26 47 -42 0 -6 -6 -12
-14 -12 -8 0 -12 6 -9 14 3 7 0 13 -6 13 -14 0 -15 -37 -1 -45 6 -3 10 -2 10
3 0 15 29 9 47 -10 9 -10 14 -20 11 -23 -8 -9 -38 6 -32 16 3 5 0 9 -6 9 -7 0
-10 -7 -6 -15 3 -8 1 -15 -3 -15 -5 0 -11 6 -14 13 -3 9 -9 9 -27 -1 -18 -11
-25 -11 -34 -1 -8 9 -8 10 1 5 13 -7 26 9 30 41 3 17 -1 20 -16 16 -18 -5 -18
-7 -6 -20 19 -19 19 -18 -10 -21 -25 -2 -35 20 -15 33 15 9 2 25 -15 19 -8 -4
-12 -10 -9 -15 3 -5 0 -9 -6 -9 -6 0 -13 7 -16 15 -4 8 -10 12 -15 9 -5 -3 -9
0 -9 5 0 6 3 11 8 11 4 0 13 10 21 23 11 18 8 17 -15 -6 -27 -26 -28 -29 -11
-41 19 -15 14 -42 -12 -64 -9 -8 -10 -10 -2 -6 7 3 17 0 23 -7 7 -11 8 -9 6 6
-2 14 3 20 16 20 11 0 21 -6 24 -12 2 -7 -3 -13 -12 -13 -13 0 -12 -4 4 -20
11 -11 25 -20 31 -20 5 0 7 -5 3 -11 -3 -6 0 -15 7 -20 11 -7 10 -9 -4 -9 -10
0 -20 6 -23 14 -4 9 -16 13 -35 11 -16 -2 -27 0 -24 5 11 17 -7 40 -31 38 -22
-2 -24 -13 -2 -13 6 0 13 -6 16 -12 2 -7 -3 -13 -11 -13 -10 0 -13 -7 -10 -21
4 -16 8 -17 14 -7 5 7 9 10 10 6 1 -5 3 -12 4 -18 1 -5 3 -16 4 -24 1 -9 8
-12 21 -9 19 5 20 3 9 -21 -12 -25 -35 -38 -27 -14 2 6 -6 22 -18 36 -13 13
-28 47 -35 76 -10 47 -9 57 11 103 23 54 47 81 95 107 35 18 56 17 63 -3z m73
-9 c8 -20 6 -22 -19 -16 -34 8 -46 19 -37 34 11 18 47 7 56 -18z m43 18 c14
-5 26 -14 26 -19 0 -6 -6 -8 -14 -5 -8 3 -16 -3 -19 -15 -3 -11 0 -22 5 -23 6
-2 2 -10 -8 -18 -13 -11 -16 -12 -10 -1 5 8 3 17 -5 22 -11 7 -11 11 -2 17 8
5 9 13 3 22 -19 30 -14 35 24 20z m650 -6 c29 -28 38 -53 27 -72 -9 -14 -10
-11 -11 17 l0 35 -25 -51 c-25 -49 -60 -91 -70 -82 -2 3 7 29 21 58 25 56 25
73 0 52 -8 -7 -12 -19 -9 -28 4 -11 2 -14 -8 -11 -26 9 -22 54 7 77 32 25 47
26 68 5z m-1121 -11 c-7 -2 -19 -2 -25 0 -7 3 -2 5 12 5 14 0 19 -2 13 -5z
m121 -14 c27 -21 35 -49 14 -49 -9 0 -10 -2 -2 -8 7 -4 8 -15 3 -27 -4 -11 -8
-14 -8 -7 -1 8 -10 25 -21 39 -21 27 -27 59 -10 48 6 -4 7 -11 4 -17 -5 -7 -2
-8 5 -3 9 5 10 10 2 18 -17 17 -43 18 -37 1 3 -8 -1 -14 -9 -14 -8 0 -15 9
-15 20 0 27 39 27 74 -1z m627 4 c0 -11 3 -13 6 -5 2 6 9 9 14 6 6 -4 6 -10 0
-18 -10 -12 -49 -234 -58 -336 l-5 -55 26 24 c25 24 72 131 96 221 19 71 37
98 70 105 38 8 70 -2 70 -23 0 -14 -2 -14 -9 -3 -10 16 -9 20 -70 -224 -69
-275 -109 -369 -195 -459 -91 -94 -173 -132 -312 -142 -140 -11 -309 41 -383
119 l-34 36 25 30 26 30 28 -31 c89 -93 296 -124 449 -67 97 36 197 146 240
262 24 63 12 73 -50 41 -28 -13 -42 -22 -32 -20 9 3 17 0 17 -6 0 -6 6 -5 17
3 14 12 16 12 11 -1 -6 -18 -37 -24 -58 -10 -11 7 -15 29 -15 85 0 41 -1 75
-1 75 -1 0 -15 -28 -32 -63 -38 -76 -81 -119 -121 -121 -35 -1 -32 -12 6 -19
21 -4 33 2 59 30 18 19 38 32 43 29 6 -4 8 3 6 15 -3 16 -1 19 6 12 14 -14 1
-56 -13 -47 -6 4 -8 3 -5 -3 9 -14 -42 -60 -74 -68 -17 -4 -33 0 -49 13 -21
17 -24 29 -28 108 -8 161 35 266 126 306 35 16 49 18 69 9 28 -13 26 -16 51
84 13 55 22 72 42 82 33 17 40 16 41 -4z m263 -25 c-5 -7 -7 -21 -6 -30 4 -23
-14 -23 -39 0 -19 19 -19 19 6 30 14 6 25 17 25 24 0 9 3 9 11 1 7 -7 8 -17 3
-25z m-445 -53 c1 -5 -4 -3 -9 5 -8 13 -10 12 -10 -2 0 -10 -5 -18 -11 -18 -6
0 -8 9 -4 21 5 15 4 19 -4 15 -15 -10 -14 2 2 18 10 12 14 10 24 -8 7 -11 12
-25 12 -31z m275 40 c3 -8 1 -15 -4 -15 -6 0 -10 7 -10 15 0 8 2 15 4 15 2 0
6 -7 10 -15z m-410 -20 c-4 -9 0 -15 7 -16 8 -1 21 -2 29 -3 21 -2 26 -36 5
-36 -8 0 -18 7 -21 15 -4 8 -9 13 -14 10 -4 -2 -12 7 -18 20 -9 20 -9 25 3 25
9 0 12 -6 9 -15z m356 -18 c0 -5 -5 -5 -11 -1 -8 5 -10 -1 -7 -21 3 -15 -1
-39 -8 -54 -13 -25 -14 -25 -14 -3 0 12 5 22 11 22 5 0 7 5 4 11 -4 6 -4 27 0
46 5 27 9 33 16 22 5 -8 9 -18 9 -22z m-276 6 c4 -10 15 -29 26 -43 l19 -25
-6 24 c-4 17 -3 22 5 17 38 -23 -19 -77 -59 -56 -13 7 -19 7 -19 0 0 -5 -7
-10 -15 -10 -10 0 -12 -6 -8 -17 6 -16 5 -16 -10 -4 -15 12 -17 12 -11 -3 8
-21 16 -20 37 4 9 11 22 20 27 20 6 0 -8 -22 -32 -50 -25 -29 -46 -46 -51 -41
-12 12 1 33 16 25 8 -4 7 -2 -1 7 -11 12 -14 12 -22 -1 -5 -8 -12 -11 -16 -8
-3 4 4 19 16 35 21 27 11 48 -12 25 -15 -15 -38 -3 -38 19 0 17 3 18 21 9 11
-7 27 -9 34 -6 8 3 15 0 17 -5 2 -6 11 -7 21 -4 9 4 15 11 12 15 -2 4 3 7 13
6 9 0 19 4 20 9 2 6 8 15 13 22 7 8 3 18 -12 32 -18 17 -20 21 -7 21 9 0 19
-8 22 -17z m712 -3 c38 -15 53 -38 54 -83 0 -42 -38 -91 -67 -85 -29 6 -37 54
-16 97 l19 39 -28 -10 c-30 -11 -58 -53 -58 -87 0 -32 45 -76 119 -115 84 -44
101 -65 101 -126 0 -83 -64 -143 -160 -149 -24 -1 -47 -4 -50 -7 -3 -3 8 -17
24 -31 26 -22 37 -25 83 -21 30 3 59 10 66 17 10 11 7 12 -13 6 -28 -8 -26 -3
8 14 12 7 21 8 20 4 -1 -4 8 -30 20 -58 13 -27 22 -63 20 -80 -3 -29 -5 -30
-53 -33 -75 -3 -134 -22 -168 -53 -17 -16 -34 -26 -39 -23 -5 4 -8 0 -7 -7 5
-23 -12 -60 -23 -53 -8 5 -9 -27 -5 -109 5 -102 3 -117 -12 -131 -21 -19 -72
-21 -89 -4 -18 18 -14 70 8 98 28 36 28 140 -1 186 -18 29 -26 34 -57 32 -36
-1 -36 -1 -6 -5 18 -2 40 -14 50 -26 19 -22 19 -22 -2 -4 -46 38 -125 6 -154
-64 -13 -29 -14 -30 -27 -13 -7 10 -13 13 -13 7 0 -7 4 -14 9 -17 14 -9 10
-135 -5 -147 -10 -8 -20 0 -41 35 -30 50 -66 71 -106 61 -35 -9 -88 -70 -81
-92 5 -14 4 -15 -4 -4 -8 11 -13 6 -21 -25 -12 -48 -19 -304 -8 -304 5 0 5 5
2 10 -3 6 -2 10 3 10 6 0 12 18 14 40 2 22 0 40 -4 40 -10 0 -9 168 1 193 4
10 6 -28 5 -85 l-2 -103 7 90 c8 88 28 156 50 169 6 4 8 13 5 19 -4 7 -4 9 1
5 4 -4 13 -4 19 1 18 13 57 21 50 9 -4 -6 -1 -9 7 -6 21 7 47 -28 41 -57 -2
-15 0 -25 7 -25 15 0 14 -45 -1 -58 -8 -6 -22 -6 -36 -1 -19 7 -21 12 -12 29
6 11 16 17 22 14 7 -5 5 -12 -7 -21 -18 -12 -18 -13 2 -13 24 0 38 26 20 37
-21 13 -66 11 -71 -3 -7 -19 -32 -18 -40 1 -7 18 5 20 22 3 9 -9 12 -9 12 1 0
7 -9 15 -20 18 -11 3 -20 10 -20 15 0 5 4 6 10 3 28 -17 50 -13 56 11 5 19 11
23 28 19 19 -5 19 -5 3 5 -21 14 -47 6 -47 -13 0 -7 -9 -13 -20 -13 -11 0 -20
5 -20 10 0 5 -3 6 -7 2 -5 -4 -8 -39 -9 -78 0 -41 3 -62 7 -50 9 24 47 38 61
24 17 -17 0 -34 -22 -22 -36 19 -44 3 -9 -18 17 -11 23 -11 37 0 9 7 13 8 9 2
-4 -7 -1 -14 6 -17 10 -4 13 2 9 20 -3 18 -1 24 7 19 6 -4 9 -18 7 -32 -3 -16
0 -24 10 -24 26 0 17 -56 -14 -82 -16 -13 -26 -30 -24 -37 4 -11 6 -11 14 0 7
11 8 9 6 -6 -3 -17 -11 -20 -49 -20 -50 0 -94 -19 -104 -44 -4 -11 0 -10 17 5
37 34 55 40 24 8 -27 -28 -28 -32 -22 -94 3 -36 9 -77 12 -92 14 -63 -82 -102
-140 -57 -33 26 -33 57 0 106 l26 38 -6 170 c-3 94 -6 176 -7 184 -3 18 -49
66 -72 74 -25 9 -66 -9 -77 -35 -5 -14 -9 -17 -9 -7 -1 23 37 59 62 59 12 0
33 -7 45 -16 13 -9 26 -13 29 -10 3 3 -2 8 -11 12 -9 3 -13 11 -9 17 4 6 1 7
-6 3 -7 -5 -19 0 -27 10 -9 11 -12 13 -8 5 5 -11 1 -13 -20 -9 -15 3 -25 3
-22 1 2 -2 -7 -15 -21 -29 -19 -19 -23 -31 -18 -53 4 -18 1 -32 -8 -39 -18
-16 -62 31 -72 76 -7 36 -50 92 -70 92 -7 0 -25 16 -39 35 -15 19 -34 35 -42
35 -19 0 -17 10 7 40 11 14 18 20 15 13 -4 -6 -2 -14 4 -18 5 -3 10 -2 10 4 0
6 7 8 16 4 13 -5 13 -8 2 -15 -9 -7 -3 -8 17 -4 19 4 25 3 17 -2 -20 -13 50
-39 128 -48 48 -5 64 -4 71 7 5 9 9 10 9 2 0 -8 26 -10 93 -7 140 8 145 8 140
17 -2 4 0 7 4 7 5 0 18 7 29 15 14 10 5 9 -31 -4 -59 -22 -155 -34 -155 -21 0
6 17 10 38 10 65 0 153 30 211 72 13 10 27 15 32 12 5 -3 9 2 9 10 0 8 10 23
23 33 13 10 32 32 42 50 10 18 23 29 28 26 6 -3 7 -1 4 4 -4 6 5 27 19 48 14
21 23 40 19 43 -3 3 2 13 10 22 8 9 17 34 20 55 2 21 10 42 16 46 6 4 9 13 7
20 -3 8 -1 28 4 44 20 65 67 264 78 328 7 37 15 67 19 67 31 -1 43 -60 22
-113 -12 -30 -5 -77 10 -77 6 0 4 -10 -2 -22 -12 -22 -11 -22 6 -8 10 8 16 10
12 4 -6 -10 27 -49 42 -49 3 0 5 -3 4 -7 -2 -5 1 -8 6 -8 4 0 20 -18 35 -39
23 -33 26 -43 16 -61 -10 -18 -14 -19 -28 -8 -13 11 -14 11 -7 -1 5 -9 4 -12
-3 -7 -6 4 -9 13 -5 21 3 9 -1 15 -10 15 -9 0 -27 15 -41 32 l-25 33 -19 -21
c-19 -20 -19 -21 4 -43 13 -13 24 -28 24 -33 0 -6 11 -8 24 -6 13 3 34 0 46
-7 22 -12 22 -12 -10 -38 -37 -31 -62 -34 -91 -9 -26 22 -52 70 -44 82 9 14
-8 12 -27 -2 -19 -16 -30 -58 -15 -58 8 0 7 -4 -1 -12 -16 -16 -15 -25 4 -32
12 -4 14 -1 9 14 -10 33 22 37 54 6 53 -51 132 -20 172 69 l18 40 -25 26 c-19
20 -22 29 -13 34 7 5 10 4 6 -2 -4 -6 5 -20 18 -33 13 -13 22 -27 18 -33 -3
-6 -1 -7 5 -3 28 17 -1 56 -83 111 -49 33 -64 58 -65 111 0 53 32 101 89 131
50 26 59 27 97 13z m-1098 -55 c2 -16 1 -17 -7 -5 -9 13 -11 13 -15 0 -11 -29
-65 -256 -87 -360 -11 -58 -28 -118 -36 -133 -19 -37 -71 -69 -105 -64 -15 2
-24 -1 -21 -6 8 -12 96 -2 101 12 2 6 8 9 12 6 11 -7 42 50 33 59 -4 3 -1 6 5
6 6 0 11 8 11 18 0 9 5 40 11 67 6 28 14 64 16 80 8 54 46 220 52 230 4 6 6
19 5 30 -2 12 2 9 8 -9 9 -21 8 -30 0 -35 -7 -5 -9 -15 -5 -26 6 -14 4 -16 -6
-10 -10 6 -12 3 -7 -15 3 -13 -1 -48 -9 -79 -8 -31 -24 -101 -35 -156 -35
-169 -72 -221 -150 -212 -22 2 -43 7 -46 11 -4 4 -6 33 -5 66 l2 59 -28 -5
c-15 -3 -47 -8 -72 -12 -43 -7 -47 -11 -81 -73 -54 -100 -88 -138 -162 -186
-37 -23 -69 -43 -72 -43 -24 0 46 171 104 255 12 17 21 32 21 35 0 3 -34 6
-75 8 -41 1 -87 7 -101 12 -16 6 -23 6 -19 0 9 -14 75 -30 128 -30 45 0 47 -1
32 -16 -12 -13 -27 -15 -63 -10 -57 7 -91 31 -114 77 -30 60 6 139 64 139 30
0 38 -17 13 -26 -28 -11 -15 -31 23 -38 125 -20 164 -5 237 95 67 91 152 168
280 251 73 48 97 58 125 56 26 -2 36 -8 38 -23z m842 12 c0 -32 -23 -126 -30
-122 -12 7 -20 -21 -9 -32 6 -6 3 -27 -9 -59 -10 -27 -17 -57 -14 -68 3 -13 0
-16 -9 -11 -9 6 -11 2 -6 -14 5 -20 -11 -84 -33 -136 -31 -71 -43 -101 -42
-107 1 -5 -2 -8 -6 -8 -5 0 -9 -6 -9 -13 0 -21 -53 -98 -99 -143 -46 -44 -105
-76 -199 -109 -40 -14 -229 -14 -285 0 -78 19 -121 35 -155 59 -36 25 -125
115 -125 126 0 5 26 -17 58 -49 102 -101 248 -140 447 -117 135 16 253 98 336
235 32 54 109 282 109 325 0 9 5 16 11 16 5 0 8 4 5 9 -9 14 16 121 26 115 5
-3 6 6 2 22 -5 21 -4 25 6 19 10 -6 12 -4 7 8 -4 10 -2 17 4 17 7 0 9 11 7 25
-3 14 -1 25 3 25 5 0 9 -6 9 -13z m-1140 -32 c0 -17 -2 -18 -24 -9 -23 9 -20
24 4 24 11 0 20 -7 20 -15z m1338 -5 c-7 -10 -14 -17 -17 -15 -4 4 18 35 25
35 2 0 -1 -9 -8 -20z m-1388 -15 c1 -5 -9 -12 -21 -13 -14 -3 -19 0 -14 8 5 9
1 10 -13 6 -11 -4 -23 -2 -27 3 -3 7 0 8 9 5 9 -3 16 -2 16 4 0 13 49 0 50
-13z m347 -7 c-3 -8 -6 -5 -6 6 -1 11 2 17 5 13 3 -3 4 -12 1 -19z m203 18 c0
-3 -4 -8 -10 -11 -5 -3 -10 -1 -10 4 0 6 5 11 10 11 6 0 10 -2 10 -4z m30 -20
c10 -13 10 -17 3 -12 -7 4 -13 2 -13 -3 0 -6 7 -11 15 -11 8 0 15 -4 15 -10 0
-5 -5 -9 -12 -7 -21 4 -36 21 -33 37 2 8 4 19 4 24 1 5 2 7 4 5 1 -2 9 -13 17
-23z m-835 -27 c50 -24 101 -78 108 -115 2 -13 1 -24 -2 -24 -9 0 -36 43 -36
57 0 7 -3 12 -7 10 -12 -4 -58 46 -51 56 4 6 1 7 -7 2 -7 -4 -16 -2 -20 5 -4
7 -13 9 -19 6 -15 -9 12 -57 54 -94 16 -15 24 -20 17 -10 -8 9 -9 19 -4 22 6
3 17 -6 27 -20 25 -39 6 -50 -43 -25 -44 22 -92 90 -92 129 0 28 18 28 75 1z
m1245 6 c0 -8 -2 -15 -4 -15 -2 0 -6 7 -10 15 -3 8 -1 15 4 15 6 0 10 -7 10
-15z m377 -17 c-3 -7 -5 -2 -5 12 0 14 2 19 5 13 2 -7 2 -19 0 -25z m136 -35
c-14 -13 -33 -23 -42 -22 -10 0 -8 3 7 9 26 11 30 22 5 14 -13 -4 -11 0 5 12
12 9 22 24 22 32 0 13 3 12 14 -4 13 -17 12 -21 -11 -41z m-1740 -7 c19 -21
21 -26 10 -26 -5 0 -21 17 -38 38 -28 36 -9 28 28 -12z m754 27 c5 -13 -32
-27 -46 -18 -6 3 -8 12 -4 21 6 17 44 15 50 -3z m462 -33 c1 -13 0 -13 -9 0
-5 8 -9 24 -9 35 0 20 0 20 9 0 5 -11 9 -27 9 -35z m-355 8 c11 -17 12 -33 6
-58 l-8 -35 -1 44 c-2 79 -11 37 -26 -116 -16 -168 -24 -198 -55 -208 -12 -4
-19 -9 -17 -12 3 -3 15 -2 27 2 27 9 50 61 50 117 0 24 5 50 10 58 7 10 10 -9
10 -63 0 -43 -4 -76 -9 -73 -5 3 -12 -5 -15 -18 -7 -30 -58 -45 -83 -25 -13
11 -14 27 -9 96 4 46 5 83 3 83 -3 0 -24 -29 -47 -65 -42 -64 -101 -125 -121
-125 -6 0 -7 -5 -4 -10 12 -19 96 50 135 111 17 27 20 29 14 9 -15 -53 -24
-69 -62 -109 -51 -53 -81 -54 -109 -4 -18 31 -16 88 7 228 15 96 23 123 41
138 35 28 80 16 78 -22 0 -11 -3 -10 -9 4 -7 19 -8 18 -14 -5 -13 -55 -27
-152 -23 -157 3 -2 28 37 57 87 69 121 95 150 131 150 19 0 34 -8 43 -22z
m338 -68 c-7 -45 -18 -36 -14 11 3 23 8 36 11 30 4 -6 6 -25 3 -41z m-513 -23
c-9 -7 -19 -19 -22 -27 -4 -9 -5 -4 -4 10 1 14 8 24 15 23 6 -2 12 2 12 9 0 6
3 8 7 4 5 -4 1 -13 -8 -19z m823 -82 c6 -14 15 -25 20 -25 5 0 6 -5 3 -10 -5
-8 -11 -7 -21 1 -7 6 -12 15 -9 19 3 4 -2 10 -10 14 -17 6 -20 26 -5 26 6 0
16 -11 22 -25z m324 -79 c-19 -74 -148 -143 -204 -108 -7 5 9 9 38 9 73 1 123
37 147 104 17 48 31 44 19 -5z m-433 19 c4 -8 2 -17 -3 -20 -6 -4 -10 3 -10
14 0 25 6 27 13 6z m-850 -198 c22 -35 72 -37 113 -5 27 22 54 32 54 20 0 -3
-10 -16 -22 -29 -12 -13 -19 -23 -15 -23 3 0 15 10 27 22 24 26 27 53 5 44
-18 -7 -18 2 0 34 13 23 14 23 15 5 1 -66 81 -90 119 -36 12 17 21 45 21 68 1
37 1 37 14 14 12 -21 11 -29 -6 -58 -11 -18 -17 -33 -14 -33 3 0 12 12 20 28
13 23 21 19 18 -9 -1 -4 7 -14 17 -23 15 -14 20 -14 29 -3 9 11 6 17 -13 27
-41 22 -39 39 4 33 47 -6 74 7 110 57 26 37 28 37 40 18 10 -17 20 -19 52 -15
l39 5 -27 -51 c-16 -28 -49 -72 -75 -98 -52 -52 -156 -109 -166 -92 -8 13 -62
5 -62 -9 0 -7 -37 -9 -102 -6 -87 4 -112 9 -159 32 -31 16 -66 41 -78 57 -20
27 -20 31 -6 86 8 31 16 71 17 88 1 16 4 -4 7 -46 4 -46 13 -85 24 -102z
m-263 48 c0 -9 -10 -15 -22 -16 -13 -1 -38 -3 -55 -5 -39 -5 -42 18 -3 26 55
12 80 11 80 -5z m1437 -1 c-3 -3 -12 -4 -19 -1 -8 3 -5 6 6 6 11 1 17 -2 13
-5z m-1567 -84 c-10 -25 -22 -45 -27 -45 -5 0 -25 -18 -43 -40 -26 -30 -28
-34 -7 -16 41 37 32 10 -10 -31 -48 -45 -97 -70 -131 -66 -26 3 -26 4 14 25
23 12 56 35 74 50 37 31 130 167 131 192 0 12 2 11 8 -4 5 -13 2 -37 -9 -65z
m130 32 c0 -10 9 -28 20 -40 21 -23 14 -32 -8 -10 -8 8 -12 9 -12 1 0 -6 7
-19 17 -28 15 -15 17 -15 25 -1 5 9 20 16 33 16 17 0 26 -9 35 -32 7 -18 12
-38 11 -45 -1 -6 3 -14 9 -18 6 -4 7 1 3 12 -4 12 8 5 33 -17 21 -19 40 -35
41 -36 2 0 -6 -18 -17 -39 -11 -21 -22 -53 -25 -69 -8 -48 -11 -458 -3 -438 4
12 7 7 7 -15 1 -18 1 -36 0 -39 0 -3 10 -20 24 -37 13 -18 22 -41 20 -52 -2
-11 -5 -25 -5 -32 -1 -6 -8 -9 -16 -5 -9 3 -13 1 -9 -4 3 -6 -8 -8 -29 -6 -51
6 -59 28 -44 125 10 59 11 129 5 256 -5 97 -9 193 -9 213 0 25 -3 33 -9 25 -6
-8 -7 -4 -4 11 3 12 1 20 -3 17 -5 -3 -18 11 -30 30 -27 43 -49 56 -99 57 -47
0 -90 -22 -126 -64 -16 -18 -32 -32 -37 -30 -5 1 -7 -1 -4 -6 3 -5 -1 -30 -9
-57 -21 -68 -19 -138 6 -195 26 -60 22 -90 -13 -110 -25 -13 -31 -13 -55 0
-35 19 -40 55 -18 115 24 63 17 173 -13 214 -12 17 -27 42 -32 56 -9 23 -7 25
33 36 46 12 123 79 160 139 11 19 27 38 34 43 6 4 10 14 7 21 -3 8 -1 24 6 35
15 29 100 31 100 3z m-169 -105 c-10 -9 -11 -8 -5 6 3 10 9 15 12 12 3 -3 0
-11 -7 -18z m519 -157 c13 -8 13 -10 -2 -10 -9 0 -20 5 -23 10 -8 13 5 13 25
0z m68 -17 c-10 -2 -26 -2 -35 0 -10 3 -2 5 17 5 19 0 27 -2 18 -5z m65 -10
c-7 -2 -21 -2 -30 0 -10 3 -4 5 12 5 17 0 24 -2 18 -5z m-193 -72 c0 -5 8 -12
18 -15 19 -6 35 -32 47 -73 5 -19 2 -23 -15 -23 -12 0 -18 -4 -15 -10 3 -5 14
-10 24 -10 10 0 26 -9 36 -20 31 -34 60 -26 84 24 11 25 25 48 32 51 19 12 60
-17 75 -53 20 -48 18 -52 -17 -40 -37 13 -44 7 -45 -43 -1 -27 2 -39 12 -39 8
0 11 6 8 15 -4 8 0 23 7 32 10 12 10 15 2 9 -7 -4 -13 -3 -13 3 0 8 18 9 63 2
4 0 7 -67 7 -147 0 -139 -1 -147 -27 -191 l-26 -45 -15 34 c-8 18 -14 39 -13
46 1 8 -7 34 -18 58 -25 52 -27 67 -5 36 8 -12 20 -22 25 -22 6 0 3 7 -5 16
-9 8 -19 27 -22 42 -15 67 -28 93 -55 114 -17 13 -41 33 -55 45 -27 24 -41 16
-20 -13 8 -10 12 -24 9 -31 -5 -12 1 -14 51 -17 14 -1 22 -14 32 -51 7 -27 13
-51 14 -53 0 -2 -6 -2 -12 -1 -25 3 -38 -1 -38 -12 0 -6 8 -9 18 -7 13 4 24
-9 44 -48 32 -60 20 -86 -13 -29 -12 19 -30 40 -41 46 -16 8 -19 17 -14 40 4
22 -2 38 -29 74 -19 25 -35 54 -35 65 0 10 -10 45 -22 77 -12 32 -22 61 -23
65 0 3 -3 10 -7 14 -5 4 -8 21 -8 39 0 17 -5 36 -12 43 -9 9 -9 12 0 12 7 0
12 -4 12 -9z m632 -79 c11 -19 13 -33 7 -44 -5 -9 -8 -26 -7 -38 2 -15 -4 -25
-18 -30 -19 -7 -21 -6 -16 13 3 12 12 28 19 35 17 18 16 43 -3 70 -8 12 -11
22 -7 22 5 0 16 -12 25 -28z m-101 -35 c-10 -9 -11 -8 -5 6 3 10 9 15 12 12 3
-3 0 -11 -7 -18z m-406 -127 c3 -5 2 -10 -4 -10 -5 0 -13 5 -16 10 -3 6 -2 10
4 10 5 0 13 -4 16 -10z"/>
<path d="M1547 2646 c-12 -9 -14 -16 -8 -21 6 -3 11 -1 11 4 0 6 5 10 11 9 6
-2 14 3 16 10 6 16 -7 15 -30 -2z"/>
<path d="M1405 2640 l-30 -8 35 -1 c19 0 42 4 50 9 12 8 11 10 -5 9 -11 -1
-33 -5 -50 -9z"/>
<path d="M1647 2629 c7 -7 15 -10 18 -7 3 3 -2 9 -12 12 -14 6 -15 5 -6 -5z"/>
<path d="M1290 2621 c0 -5 7 -11 15 -15 8 -3 15 -1 15 3 0 5 -7 11 -15 15 -8
3 -15 1 -15 -3z"/>
<path d="M1610 2619 c0 -5 5 -7 10 -4 6 3 10 8 10 11 0 2 -4 4 -10 4 -5 0 -10
-5 -10 -11z"/>
<path d="M1700 2621 c0 -6 5 -13 10 -16 6 -3 10 1 10 9 0 9 -4 16 -10 16 -5 0
-10 -4 -10 -9z"/>
<path d="M1217 2614 c-8 -8 1 -24 14 -24 5 0 9 7 9 15 0 15 -12 20 -23 9z"/>
<path d="M1345 2611 c-3 -5 -1 -12 5 -16 5 -3 10 1 10 9 0 18 -6 21 -15 7z"/>
<path d="M1436 2608 c3 -5 10 -6 15 -3 13 9 11 12 -6 12 -8 0 -12 -4 -9 -9z"/>
<path d="M1749 2603 c-12 -14 -12 -16 1 -8 26 16 50 12 64 -10 11 -17 12 -25
3 -34 -8 -8 -8 -11 1 -11 16 0 28 30 15 39 -5 3 -12 14 -16 24 -8 22 -50 22
-68 0z"/>
<path d="M1145 2600 c-4 -6 1 -7 11 -3 13 5 15 3 9 -7 -5 -9 -4 -11 3 -6 7 4
12 11 12 17 0 12 -27 12 -35 -1z"/>
<path d="M1496 2598 c5 -8 2 -9 -10 -5 -12 5 -16 3 -14 -5 7 -19 32 -16 36 5
2 9 -2 17 -8 17 -6 0 -8 -5 -4 -12z"/>
<path d="M1645 2600 c-3 -5 -1 -10 4 -10 6 0 11 5 11 10 0 6 -2 10 -4 10 -3 0
-8 -4 -11 -10z"/>
<path d="M1261 2587 c-8 -10 -7 -14 4 -14 8 0 11 5 8 10 -4 6 1 8 11 4 10 -4
15 -3 11 3 -8 14 -20 12 -34 -3z"/>
<path d="M1385 2590 c3 -5 8 -10 11 -10 2 0 4 5 4 10 0 6 -5 10 -11 10 -5 0
-7 -4 -4 -10z"/>
<path d="M1541 2584 c0 -11 3 -14 6 -6 3 7 2 16 -1 19 -3 4 -6 -2 -5 -13z"/>
<path d="M1560 2590 c0 -5 5 -10 11 -10 5 0 7 5 4 10 -3 6 -8 10 -11 10 -2 0
-4 -4 -4 -10z"/>
<path d="M1667 2586 c-4 -10 -5 -21 -2 -24 9 -9 17 6 13 25 -3 17 -4 17 -11
-1z"/>
<path d="M1596 2582 c-3 -5 1 -9 9 -9 8 0 12 4 9 9 -3 4 -7 8 -9 8 -2 0 -6 -4
-9 -8z"/>
<path d="M1930 2580 c0 -6 7 -10 15 -10 8 0 15 2 15 4 0 2 -7 6 -15 10 -8 3
-15 1 -15 -4z"/>
<path d="M1127 2569 c7 -7 15 -10 18 -7 3 3 -2 9 -12 12 -14 6 -15 5 -6 -5z"/>
<path d="M1632 2563 c-17 -30 -15 -37 4 -19 8 9 14 22 11 29 -2 7 -8 4 -15
-10z"/>
<path d="M1770 2565 c0 -8 2 -15 4 -15 2 0 6 7 10 15 3 8 1 15 -4 15 -6 0 -10
-7 -10 -15z"/>
<path d="M1954 2556 c-10 -8 -15 -18 -11 -23 5 -4 14 0 22 10 10 14 18 16 39
7 33 -12 57 -13 36 -1 -32 18 -67 20 -86 7z"/>
<path d="M1323 2542 c-9 -15 -8 -19 3 -19 8 0 14 9 14 19 0 10 -1 18 -3 18 -1
0 -7 -8 -14 -18z"/>
<path d="M1443 2553 c-7 -3 -13 -9 -13 -14 0 -4 6 -6 14 -3 8 3 17 1 21 -5 10
-17 25 -13 25 6 0 9 -3 13 -7 10 -3 -4 -11 -3 -17 2 -6 4 -17 6 -23 4z"/>
<path d="M976 2541 c-4 -5 -2 -12 3 -15 5 -4 12 -2 15 3 4 5 2 12 -3 15 -5 4
-12 2 -15 -3z"/>
<path d="M1355 2540 c-3 -6 1 -7 9 -4 18 7 21 14 7 14 -6 0 -13 -4 -16 -10z"/>
<path d="M1540 2534 c-7 -7 0 -11 21 -11 16 0 25 4 18 8 -8 5 -6 9 7 12 11 3
8 4 -9 4 -16 -1 -32 -6 -37 -13z"/>
<path d="M1067 2525 c-4 -8 -2 -17 3 -20 6 -4 10 3 10 14 0 25 -6 27 -13 6z"/>
<path d="M1269 2531 c11 -7 11 -9 0 -13 -8 -3 -10 -9 -6 -14 9 -10 28 16 21
28 -3 4 -11 8 -17 8 -8 0 -7 -3 2 -9z"/>
<path d="M1632 2524 c-7 -8 -8 -14 -3 -14 10 0 25 19 20 25 -2 1 -10 -3 -17
-11z"/>
<path d="M2070 2525 c0 -8 2 -15 4 -15 2 0 6 7 10 15 3 8 1 15 -4 15 -6 0 -10
-7 -10 -15z"/>
<path d="M1678 2523 c7 -3 16 -2 19 1 4 3 -2 6 -13 5 -11 0 -14 -3 -6 -6z"/>
<path d="M1710 2526 c0 -2 7 -7 16 -10 8 -3 12 -2 9 4 -6 10 -25 14 -25 6z"/>
<path d="M1998 2513 c7 -3 16 -2 19 1 4 3 -2 6 -13 5 -11 0 -14 -3 -6 -6z"/>
<path d="M1226 2494 c-4 -9 -4 -19 -1 -22 2 -3 7 3 11 12 4 9 4 19 1 22 -2 3
-7 -3 -11 -12z"/>
<path d="M1290 2501 c0 -5 9 -7 20 -4 11 3 20 7 20 9 0 2 -9 4 -20 4 -11 0
-20 -4 -20 -9z"/>
<path d="M1690 2500 c0 -5 7 -10 16 -10 8 0 12 5 9 10 -3 6 -10 10 -16 10 -5
0 -9 -4 -9 -10z"/>
<path d="M1818 2503 c7 -3 16 -2 19 1 4 3 -2 6 -13 5 -11 0 -14 -3 -6 -6z"/>
<path d="M1970 2501 c0 -6 4 -13 10 -16 6 -3 7 1 4 9 -7 18 -14 21 -14 7z"/>
<path d="M2085 2500 c-8 -13 3 -30 18 -29 9 0 9 2 0 5 -7 3 -9 12 -6 20 6 16
-3 19 -12 4z"/>
<path d="M2140 2500 c0 -5 5 -10 11 -10 5 0 7 5 4 10 -3 6 -8 10 -11 10 -2 0
-4 -4 -4 -10z"/>
<path d="M1020 2490 c0 -5 10 -15 23 -21 22 -12 22 -12 3 10 -21 23 -26 26
-26 11z"/>
<path d="M1188 2475 c5 -29 8 -31 15 -11 3 8 0 19 -7 25 -10 9 -12 6 -8 -14z"/>
<path d="M876 2481 c-3 -5 1 -11 9 -14 9 -4 12 -1 8 9 -6 16 -10 17 -17 5z"/>
<path d="M1781 2486 c2 -2 15 -9 29 -15 24 -11 24 -11 6 3 -16 13 -49 24 -35
12z"/>
<path d="M930 2470 c0 -5 7 -10 16 -10 8 0 12 5 9 10 -3 6 -10 10 -16 10 -5 0
-9 -4 -9 -10z"/>
<path d="M1940 2471 c0 -10 19 -25 25 -20 1 2 -3 10 -11 17 -8 7 -14 8 -14 3z"/>
<path d="M1155 2460 c-3 -5 -1 -10 4 -10 6 0 11 5 11 10 0 6 -2 10 -4 10 -3 0
-8 -4 -11 -10z"/>
<path d="M1030 2446 c0 -8 49 -13 60 -6 6 4 -5 7 -25 8 -19 1 -35 0 -35 -2z"/>
<path d="M940 2429 c0 -5 -5 -7 -12 -3 -7 4 -8 3 -4 -4 4 -6 12 -9 20 -6 9 4
11 -4 8 -27 -4 -29 -3 -31 11 -18 8 8 11 17 5 20 -5 3 -8 10 -7 15 3 19 -1 34
-11 34 -5 0 -10 -5 -10 -11z"/>
<path d="M999 2423 c-13 -16 -12 -17 4 -4 9 7 17 15 17 17 0 8 -8 3 -21 -13z"/>
<path d="M1024 2414 c-18 -14 -18 -14 6 -3 31 14 36 19 24 19 -6 0 -19 -7 -30
-16z"/>
<path d="M2060 2400 c0 -11 2 -20 4 -20 2 0 6 9 9 20 3 11 1 20 -4 20 -5 0 -9
-9 -9 -20z"/>
<path d="M2280 2434 c0 -8 5 -12 10 -9 6 3 10 10 10 16 0 5 -4 9 -10 9 -5 0
-10 -7 -10 -16z"/>
<path d="M2184 2385 c-4 -9 -2 -21 5 -28 6 -6 11 -9 12 -6 0 2 2 12 4 21 4 24
-13 34 -21 13z"/>
<path d="M2338 2393 c7 -3 16 -2 19 1 4 3 -2 6 -13 5 -11 0 -14 -3 -6 -6z"/>
<path d="M2373 2385 c0 -8 4 -15 9 -15 4 0 8 4 8 9 0 6 -4 12 -8 15 -5 3 -9
-1 -9 -9z"/>
<path d="M2350 2335 c-8 -9 -8 -15 -2 -15 12 0 26 19 19 26 -2 2 -10 -2 -17
-11z"/>
<path d="M2270 2320 c0 -5 5 -10 11 -10 5 0 7 5 4 10 -3 6 -8 10 -11 10 -2 0
-4 -4 -4 -10z"/>
<path d="M2292 2288 c4 -12 68 -40 68 -30 -1 16 -17 29 -43 34 -16 3 -26 1
-25 -4z"/>
<path d="M750 2449 c0 -5 5 -7 10 -4 6 3 10 8 10 11 0 2 -4 4 -10 4 -5 0 -10
-5 -10 -11z"/>
<path d="M702 2437 c-6 -7 -7 -18 -3 -26 6 -9 11 -10 15 -2 4 6 2 11 -5 11 -8
0 -8 4 1 15 7 8 10 15 7 15 -2 0 -9 -6 -15 -13z"/>
<path d="M770 2404 c-19 -13 -36 -20 -38 -14 -2 6 -8 7 -14 4 -6 -4 -5 -9 3
-15 14 -8 58 11 78 35 18 21 12 20 -29 -10z"/>
<path d="M666 2392 c-10 -16 1 -32 22 -32 11 0 13 3 6 8 -6 4 -13 14 -16 22
-3 10 -6 11 -12 2z"/>
<path d="M799 2383 c-13 -16 -12 -17 4 -4 9 7 17 15 17 17 0 8 -8 3 -21 -13z"/>
<path d="M764 2358 c3 -12 0 -18 -9 -18 -8 0 -15 -7 -15 -15 0 -8 -4 -15 -8
-15 -5 0 -9 -7 -9 -15 0 -8 4 -12 9 -9 4 3 8 0 8 -6 0 -6 5 -8 11 -4 8 5 8 8
0 14 -20 12 -1 41 21 34 14 -4 18 -2 14 5 -4 6 0 11 11 11 10 0 28 3 40 6 17
5 22 1 25 -18 2 -13 6 -18 10 -12 10 15 -21 56 -35 47 -17 -11 -61 -10 -70 2
-5 6 -7 3 -3 -7z"/>
<path d="M678 2318 c2 -10 8 -15 13 -12 6 3 8 -6 5 -21 -3 -15 -2 -24 1 -21
12 12 14 56 3 56 -6 0 -9 4 -6 8 3 5 -1 9 -8 9 -8 0 -11 -8 -8 -19z"/>
<path d="M825 2311 c3 -5 1 -12 -5 -16 -5 -3 -10 -11 -10 -16 0 -6 7 -4 15 5
17 17 20 36 4 36 -5 0 -8 -4 -4 -9z"/>
<path d="M781 2284 c0 -11 3 -14 6 -6 3 7 2 16 -1 19 -3 4 -6 -2 -5 -13z"/>
<path d="M730 2235 c-19 -14 -28 -25 -19 -25 9 0 26 11 39 25 29 31 25 31 -20
0z"/>
<path d="M730 2200 c-9 -6 -10 -10 -3 -10 6 0 15 5 18 10 8 12 4 12 -15 0z"/>
<path d="M2109 2223 c-13 -17 -13 -17 6 -3 11 8 22 16 24 17 2 2 0 3 -6 3 -6
0 -17 -8 -24 -17z"/>
<path d="M2331 2164 c0 -11 3 -14 6 -6 3 7 2 16 -1 19 -3 4 -6 -2 -5 -13z"/>
<path d="M1970 2150 c0 -5 5 -10 10 -10 6 0 10 5 10 10 0 6 -4 10 -10 10 -5 0
-10 -4 -10 -10z"/>
<path d="M1716 2015 c-4 -13 -2 -14 14 -5 23 13 26 20 6 20 -8 0 -16 -7 -20
-15z"/>
<path d="M2105 2080 c-3 -5 -1 -10 4 -10 6 0 11 5 11 10 0 6 -2 10 -4 10 -3 0
-8 -4 -11 -10z"/>
<path d="M1440 2011 c0 -25 18 -37 33 -22 8 8 6 11 -7 11 -15 0 -16 3 -6 15
10 12 10 15 -4 15 -9 0 -16 -8 -16 -19z"/>
<path d="M1405 2000 c-3 -5 1 -10 10 -10 9 0 13 5 10 10 -3 6 -8 10 -10 10 -2
0 -7 -4 -10 -10z"/>
<path d="M1331 1914 c0 -11 3 -14 6 -6 3 7 2 16 -1 19 -3 4 -6 -2 -5 -13z"/>
<path d="M1396 1868 c3 -5 10 -6 15 -3 13 9 11 12 -6 12 -8 0 -12 -4 -9 -9z"/>
<path d="M1705 1825 c-54 -23 -78 -59 -83 -124 -4 -62 7 -83 34 -60 15 12 86
130 97 161 9 27 -14 38 -48 23z m-2 -94 c-21 -39 -41 -67 -44 -63 -10 11 2 83
12 76 5 -3 8 0 7 8 -2 7 3 12 10 10 8 -1 11 2 8 7 -6 9 19 30 37 31 4 0 -10
-31 -30 -69z m-52 22 c-12 -20 -14 -14 -5 12 4 9 9 14 11 11 3 -2 0 -13 -6
-23z m-9 -62 c2 -22 0 -37 -4 -35 -8 5 -11 74 -4 74 2 0 6 -18 8 -39z"/>
<path d="M2100 1660 c-6 -11 -8 -20 -6 -20 3 0 10 9 16 20 6 11 8 20 6 20 -3
0 -10 -9 -16 -20z"/>
<path d="M2227 1636 c-9 -10 -17 -20 -17 -23 0 -4 3 -3 6 0 4 3 15 2 25 -4 20
-10 22 -5 10 25 -7 17 -8 17 -24 2z"/>
<path d="M2180 1541 c0 -7 -5 -9 -12 -5 -7 5 -8 3 -3 -5 5 -9 10 -10 18 -2 6
6 8 14 4 18 -4 3 -7 1 -7 -6z"/>
<path d="M2034 1453 c-1 -16 0 -23 3 -17 2 7 13 10 23 7 12 -3 20 0 20 6 0 7
-5 9 -11 6 -6 -4 -16 0 -22 9 -10 14 -12 12 -13 -11z"/>
<path d="M2086 1465 c4 -8 10 -12 15 -9 11 6 2 24 -11 24 -5 0 -7 -7 -4 -15z"/>
<path d="M2050 1416 c0 -7 7 -19 15 -26 16 -13 20 -3 9 24 -8 20 -24 21 -24 2z"/>
<path d="M2023 1382 c1 -12 6 -18 14 -15 16 6 13 25 -5 31 -6 2 -10 -6 -9 -16z"/>
<path d="M2114 1379 c-2 -4 -11 -6 -19 -2 -10 3 -15 -1 -15 -14 0 -13 7 -19
24 -19 14 0 22 5 19 12 -2 7 1 15 7 19 6 3 10 3 9 -2 -5 -30 2 -35 21 -18 11
10 20 21 20 24 0 9 -60 9 -66 0z"/>
<path d="M1993 1365 c-3 -9 -3 -18 -1 -21 3 -3 8 4 11 16 6 23 -1 27 -10 5z"/>
<path d="M2250 1350 c0 -5 5 -10 10 -10 6 0 10 5 10 10 0 6 -4 10 -10 10 -5 0
-10 -4 -10 -10z"/>
<path d="M2456 1326 c3 -9 11 -16 16 -16 13 0 5 23 -10 28 -7 2 -10 -2 -6 -12z"/>
<path d="M1975 1321 c-3 -5 -2 -12 3 -15 5 -3 9 1 9 9 0 17 -3 19 -12 6z"/>
<path d="M2040 1304 c0 -8 5 -12 10 -9 6 4 8 11 5 16 -9 14 -15 11 -15 -7z"/>
<path d="M2269 1303 c-13 -16 -12 -17 4 -4 9 7 17 15 17 17 0 8 -8 3 -21 -13z"/>
<path d="M1963 1275 c-3 -9 -3 -19 1 -22 3 -4 6 1 6 10 0 8 6 18 13 20 9 4 9
6 -1 6 -7 1 -15 -6 -19 -14z"/>
<path d="M2117 1283 c-9 -14 13 -64 24 -57 5 3 9 10 9 15 0 6 -5 7 -12 3 -6
-4 -9 -3 -6 2 8 14 -7 50 -15 37z"/>
<path d="M2171 1274 c0 -12 6 -25 15 -28 23 -9 34 -7 34 5 0 5 -4 7 -10 4 -5
-3 -10 -1 -10 5 0 6 -4 9 -9 5 -5 -3 -12 3 -14 12 -4 14 -5 14 -6 -3z"/>
<path d="M2310 1274 c-63 -27 -131 -107 -129 -151 0 -10 5 -3 10 15 12 41 83
111 121 119 16 3 31 9 33 13 3 5 15 6 28 3 18 -4 19 -3 7 6 -19 14 -28 13 -70
-5z"/>
<path d="M2140 1270 c0 -5 5 -10 10 -10 6 0 10 5 10 10 0 6 -4 10 -10 10 -5 0
-10 -4 -10 -10z"/>
<path d="M2014 1249 c-21 -23 -19 -24 35 -21 44 3 49 6 40 20 -13 21 -56 22
-75 1z"/>
<path d="M1906 1201 c-8 -12 3 -41 15 -41 12 0 11 17 -1 25 -6 4 -8 11 -5 16
4 5 4 9 1 9 -3 0 -7 -4 -10 -9z"/>
<path d="M1961 1176 c-13 -14 -18 -26 -12 -30 10 -6 25 11 26 29 0 6 8 9 18 9
9 -1 14 2 11 7 -8 14 -19 11 -43 -15z"/>
<path d="M1789 1132 c-23 -15 -25 -19 -12 -31 12 -11 14 -11 11 2 -2 9 6 23
17 31 27 21 16 20 -16 -2z"/>
<path d="M1825 1130 c-16 -11 -25 -20 -20 -20 10 0 64 39 55 40 -3 0 -18 -9
-35 -20z"/>
<path d="M1860 1090 c0 -5 5 -10 11 -10 5 0 7 5 4 10 -3 6 -8 10 -11 10 -2 0
-4 -4 -4 -10z"/>
<path d="M2173 1045 c0 -33 2 -45 4 -27 2 18 2 45 0 60 -2 15 -4 0 -4 -33z"/>
<path d="M1535 1031 c-6 -11 9 -23 19 -14 9 9 7 23 -3 23 -6 0 -12 -4 -16 -9z"/>
<path d="M1670 1000 c-30 -33 -55 -92 -47 -113 3 -7 6 -4 6 6 1 22 49 107 71
124 8 7 11 13 7 13 -5 0 -22 -14 -37 -30z"/>
<path d="M1346 1012 c-2 -4 -1 -14 4 -22 7 -11 9 -9 7 8 -1 24 -3 26 -11 14z"/>
<path d="M1400 980 c-20 -12 -10 -19 14 -10 11 3 15 9 10 13 -6 3 -16 2 -24
-3z"/>
<path d="M1746 974 c-17 -12 -17 -14 -4 -14 9 0 20 5 23 11 11 17 2 18 -19 3z"/>
<path d="M2178 953 c5 -21 7 -23 10 -9 2 10 0 22 -6 28 -6 6 -7 0 -4 -19z"/>
<path d="M1800 941 c0 -5 7 -12 16 -15 14 -5 15 -4 4 9 -14 17 -20 19 -20 6z"/>
<path d="M2172 915 c4 -4 3 -14 -4 -22 -8 -11 -7 -12 6 -7 19 7 21 20 4 30 -7
4 -10 4 -6 -1z"/>
<path d="M1623 810 c0 -30 2 -43 4 -27 2 15 2 39 0 55 -2 15 -4 2 -4 -28z"/>
<path d="M1693 785 c-3 -9 -3 -19 1 -22 3 -4 6 2 6 13 1 17 2 17 20 -5 11 -13
20 -19 20 -13 0 10 -27 42 -36 42 -3 0 -7 -7 -11 -15z"/>
<path d="M1768 789 c-20 -11 -23 -40 -7 -56 14 -14 37 -6 61 18 16 16 16 17
-3 22 -11 3 -19 0 -19 -8 0 -7 -7 -16 -16 -19 -24 -9 -31 -7 -14 4 13 9 13 11
0 20 -13 8 -12 10 3 10 9 0 17 5 17 10 0 12 0 12 -22 -1z"/>
<path d="M1680 735 c0 -8 4 -15 10 -15 5 0 7 7 4 15 -4 8 -8 15 -10 15 -2 0
-4 -7 -4 -15z"/>
<path d="M1717 720 c3 -11 7 -20 9 -20 2 0 4 9 4 20 0 11 -4 20 -9 20 -5 0 -7
-9 -4 -20z"/>
<path d="M1740 720 c0 -5 5 -10 11 -10 5 0 7 5 4 10 -3 6 -8 10 -11 10 -2 0
-4 -4 -4 -10z"/>
<path d="M1785 710 c-16 -7 -17 -9 -3 -9 9 -1 20 4 23 9 7 11 7 11 -20 0z"/>
<path d="M1621 644 c0 -11 3 -14 6 -6 3 7 2 16 -1 19 -3 4 -6 -2 -5 -13z"/>
<path d="M1678 643 c7 -3 16 -2 19 1 4 3 -2 6 -13 5 -11 0 -14 -3 -6 -6z"/>
<path d="M1631 564 c0 -11 3 -14 6 -6 3 7 2 16 -1 19 -3 4 -6 -2 -5 -13z"/>
<path d="M1611 520 c-1 -8 -4 -26 -7 -40 -5 -19 -4 -22 5 -14 7 6 11 24 8 40
-2 16 -5 22 -6 14z"/>
<path d="M1642 450 c0 -14 2 -19 5 -12 2 6 2 18 0 25 -3 6 -5 1 -5 -13z"/>
<path d="M1630 410 c0 -5 5 -10 11 -10 5 0 7 5 4 10 -3 6 -8 10 -11 10 -2 0
-4 -4 -4 -10z"/>
<path d="M1030 1717 c-64 -53 -148 -153 -137 -163 1 -2 36 2 77 8 75 11 104
23 95 39 -3 4 7 47 23 94 16 47 26 85 23 85 -3 0 -40 -28 -81 -63z m49 6 c-32
-38 -153 -152 -157 -148 -7 7 55 76 112 123 54 45 67 52 45 25z m-22 -61 c-10
-11 -14 -26 -10 -41 7 -27 -9 -41 -52 -41 l-29 0 49 50 c47 48 76 70 42 32z"/>
<path d="M1015 1610 c-10 -11 -13 -20 -8 -20 13 0 38 29 31 35 -3 3 -13 -4
-23 -15z"/>
<path d="M1849 1263 c-13 -16 -12 -17 4 -4 16 13 21 21 13 21 -2 0 -10 -8 -17
-17z"/>
<path d="M1725 1473 c-10 -15 -32 -42 -50 -60 -19 -17 -31 -34 -27 -37 3 -3 0
-6 -6 -6 -7 0 -12 -4 -12 -10 0 -20 25 -9 42 18 9 15 31 46 49 69 18 24 30 45
27 48 -3 3 -13 -7 -23 -22z"/>
<path d="M1700 1390 c-6 -12 -9 -24 -7 -27 3 -2 11 5 17 17 6 12 9 24 7 27 -3
2 -11 -5 -17 -17z"/>
<path d="M1435 1320 c-3 -5 -1 -10 4 -10 6 0 11 5 11 10 0 6 -2 10 -4 10 -3 0
-8 -4 -11 -10z"/>
<path d="M1565 1300 c-3 -5 -1 -10 4 -10 6 0 11 5 11 10 0 6 -2 10 -4 10 -3 0
-8 -4 -11 -10z"/>
<path d="M699 1173 c-13 -16 -12 -17 4 -4 9 7 17 15 17 17 0 8 -8 3 -21 -13z"/>
<path d="M650 1145 c-14 -8 -20 -14 -14 -15 5 0 19 7 30 15 24 18 16 19 -16 0z"/>
<path d="M905 1319 c-11 -16 -1 -19 13 -3 7 8 8 14 3 14 -5 0 -13 -5 -16 -11z"/>
<path d="M921 1296 c-7 -8 -8 -17 -3 -20 6 -3 12 3 15 14 6 24 4 25 -12 6z"/>
<path d="M880 1283 c0 -5 -10 -19 -21 -33 -14 -16 -19 -19 -15 -7 8 25 1 21
-20 -10 -17 -27 -17 -28 1 -13 17 14 18 13 12 -2 -11 -30 0 -20 32 27 17 25
26 45 21 45 -6 0 -10 -3 -10 -7z"/>
<path d="M1018 1273 c7 -3 16 -2 19 1 4 3 -2 6 -13 5 -11 0 -14 -3 -6 -6z"/>
<path d="M1020 1236 c0 -2 7 -7 16 -10 8 -3 12 -2 9 4 -6 10 -25 14 -25 6z"/>
<path d="M789 1183 c-13 -17 -13 -17 6 -3 11 8 22 16 24 17 2 2 0 3 -6 3 -6 0
-17 -8 -24 -17z"/>
<path d="M863 1179 c1 -6 -4 -14 -12 -17 -9 -3 -11 0 -6 8 6 9 3 9 -14 1 -25
-14 -28 -22 -3 -15 14 5 14 3 -2 -10 -30 -24 -9 -19 30 8 21 14 46 22 64 21
17 -1 30 1 30 6 0 5 -20 9 -45 9 -28 0 -44 -4 -42 -11z"/>
<path d="M966 1172 c5 -4 23 -18 39 -32 l30 -25 -29 33 c-17 17 -34 32 -40 32
-6 0 -6 -3 0 -8z"/>
<path d="M725 1130 c-21 -17 -49 -33 -63 -37 -15 -3 -20 -8 -12 -13 13 -8 86
27 83 40 -2 5 6 12 17 15 11 4 20 11 20 16 0 14 -4 12 -45 -21z"/>
<path d="M682 1040 c7 -10 14 -18 15 -16 6 6 -9 36 -18 36 -5 0 -4 -9 3 -20z"/>
<path d="M1101 1044 c0 -11 3 -14 6 -6 3 7 2 16 -1 19 -3 4 -6 -2 -5 -13z"/>
<path d="M711 1024 c0 -11 3 -14 6 -6 3 7 2 16 -1 19 -3 4 -6 -2 -5 -13z"/>
<path d="M1103 810 c0 -25 2 -35 4 -22 2 12 2 32 0 45 -2 12 -4 2 -4 -23z"/>
<path d="M736 767 c3 -10 9 -15 12 -12 3 3 0 11 -7 18 -10 9 -11 8 -5 -6z"/>
<path d="M730 718 c-12 -22 -12 -22 6 -6 10 10 15 20 12 24 -4 3 -12 -5 -18
-18z"/>
<path d="M1102 695 c0 -16 2 -22 5 -12 2 9 2 23 0 30 -3 6 -5 -1 -5 -18z"/>
<path d="M1128 471 c-4 -28 -3 -30 10 -18 10 11 11 20 4 32 -8 15 -10 13 -14
-14z"/>
<path d="M1265 929 c-9 -14 -2 -20 14 -10 8 6 9 11 3 15 -6 3 -14 1 -17 -5z"/>
<path d="M1485 860 c-3 -5 -1 -10 4 -10 6 0 11 5 11 10 0 6 -2 10 -4 10 -3 0
-8 -4 -11 -10z"/>
<path d="M1520 850 c6 -11 13 -20 16 -20 2 0 0 9 -6 20 -6 11 -13 20 -16 20
-2 0 0 -9 6 -20z"/>
<path d="M1525 790 c-8 -13 -1 -24 14 -19 6 3 7 10 2 18 -6 10 -10 10 -16 1z"/>
<path d="M1502 759 c2 -7 10 -15 17 -17 8 -3 12 1 9 9 -2 7 -10 15 -17 17 -8
3 -12 -1 -9 -9z"/>
<path d="M1362 698 c10 -9 18 -23 18 -32 0 -8 5 -18 11 -21 14 -9 27 4 13 13
-15 10 -25 42 -13 42 6 0 7 5 3 11 -4 8 -9 7 -14 -2 -6 -8 -13 -10 -22 -3 -8
5 -6 2 4 -8z"/>
<path d="M1472 685 c-1 -20 15 -65 19 -55 6 16 5 49 -2 45 -4 -3 -10 3 -12 12
-4 15 -5 15 -5 -2z"/>
<path d="M1505 690 c3 -5 8 -10 11 -10 2 0 4 5 4 10 0 6 -5 10 -11 10 -5 0 -7
-4 -4 -10z"/>
<path d="M1530 689 c0 -5 5 -7 10 -4 6 3 10 8 10 11 0 2 -4 4 -10 4 -5 0 -10
-5 -10 -11z"/>
<path d="M1505 600 c3 -5 10 -10 16 -10 5 0 9 5 9 10 0 6 -7 10 -16 10 -8 0
-12 -4 -9 -10z"/>
<path d="M1501 498 c0 -13 3 -18 5 -11 3 7 12 9 20 6 8 -3 14 -1 14 5 0 8 -22
22 -36 22 -2 0 -4 -10 -3 -22z"/>
<path d="M1440 2420 c0 -5 5 -10 11 -10 5 0 7 5 4 10 -3 6 -8 10 -11 10 -2 0
-4 -4 -4 -10z"/>
<path d="M1309 2403 c-6 -7 -16 -10 -22 -6 -6 3 -7 1 -3 -5 4 -7 1 -12 -8 -12
-9 0 -16 -4 -16 -10 0 -5 -7 -10 -15 -10 -8 0 -15 -5 -15 -11 0 -5 6 -7 13 -4
6 4 4 0 -7 -9 -10 -8 -15 -20 -11 -26 5 -8 11 -8 21 1 8 6 14 7 14 2 0 -15 63
-10 66 5 1 7 0 8 -3 2 -8 -17 -42 -11 -52 9 -8 14 -7 22 2 30 16 13 66 16 90
6 10 -4 17 -3 17 4 0 6 -10 11 -22 12 -22 1 -22 1 2 9 17 5 19 8 8 9 -10 1
-18 5 -18 9 0 13 -29 10 -41 -5z m12 -16 c-10 -9 -11 -8 -5 6 3 10 9 15 12 12
3 -3 0 -11 -7 -18z"/>
<path d="M1550 2406 c0 -9 30 -14 35 -6 4 6 -3 10 -14 10 -12 0 -21 -2 -21 -4z"/>
<path d="M1620 2402 c0 -4 9 -15 20 -25 14 -11 20 -13 20 -4 0 7 -9 18 -20 25
-11 7 -20 9 -20 4z"/>
<path d="M1468 2374 c-20 -9 -39 -22 -42 -30 -11 -30 52 -124 83 -124 14 0 14
-2 1 -10 -11 -7 -4 -9 25 -5 32 4 107 10 179 14 5 1 6 4 2 8 -3 4 8 22 26 41
26 27 28 32 10 23 -30 -16 -56 -7 -102 35 -39 36 -97 64 -127 63 -10 0 -35 -7
-55 -15z m133 -27 c32 -22 58 -70 27 -51 -19 12 -39 14 -32 3 3 -5 0 -9 -6 -9
-7 0 -17 14 -23 30 -6 17 -15 30 -20 30 -5 0 -6 -8 -2 -17 4 -10 9 -25 13 -33
3 -8 -7 -4 -23 10 -17 15 -26 19 -23 10 8 -26 140 -79 169 -67 8 3 0 8 -19 12
-26 6 -30 10 -21 21 13 15 34 19 25 5 -7 -10 22 -25 42 -22 24 4 12 -10 -20
-23 -18 -8 -63 -14 -99 -15 -73 -2 -106 16 -134 69 -19 38 -20 37 13 54 40 22
94 20 133 -7z m24 -57 c3 -5 1 -10 -4 -10 -6 0 -11 5 -11 10 0 6 2 10 4 10 3
0 8 -4 11 -10z"/>
<path d="M1528 2253 c7 -3 16 -2 19 1 4 3 -2 6 -13 5 -11 0 -14 -3 -6 -6z"/>
<path d="M1830 2350 c0 -5 5 -10 11 -10 5 0 7 5 4 10 -3 6 -8 10 -11 10 -2 0
-4 -4 -4 -10z"/>
<path d="M1870 2356 c0 -2 8 -10 18 -17 15 -13 16 -12 3 4 -13 16 -21 21 -21
13z"/>
<path d="M1275 2340 c3 -5 8 -10 11 -10 2 0 4 5 4 10 0 6 -5 10 -11 10 -5 0
-7 -4 -4 -10z"/>
<path d="M1390 2321 c0 -6 4 -13 10 -16 6 -3 7 1 4 9 -7 18 -14 21 -14 7z"/>
<path d="M1910 2324 c0 -5 -17 -10 -37 -12 -21 -1 -41 -6 -46 -11 -12 -12 75
-2 87 10 5 5 7 12 3 16 -4 3 -7 2 -7 -3z"/>
<path d="M1156 2284 c-22 -21 -20 -27 4 -12 11 7 20 16 20 20 0 12 -7 10 -24
-8z"/>
<path d="M1347 2283 c-24 -6 -11 -23 18 -23 29 0 41 16 19 24 -9 3 -16 5 -17
5 -1 -1 -10 -3 -20 -6z"/>
<path d="M1094 2265 c-10 -8 -14 -15 -8 -15 6 0 17 7 24 15 16 19 9 19 -16 0z"/>
<path d="M1247 2265 c-11 -8 -17 -21 -14 -32 3 -13 5 -14 6 -2 0 8 16 23 34
32 24 12 27 16 12 16 -11 0 -28 -6 -38 -14z"/>
<path d="M1887 2269 c7 -7 15 -10 18 -7 3 3 -2 9 -12 12 -14 6 -15 5 -6 -5z"/>
<path d="M1128 2243 c7 -3 16 -2 19 1 4 3 -2 6 -13 5 -11 0 -14 -3 -6 -6z"/>
<path d="M1875 2240 c-3 -5 1 -10 9 -10 9 0 16 5 16 10 0 6 -4 10 -9 10 -6 0
-13 -4 -16 -10z"/>
<path d="M1060 2236 c0 -2 7 -7 16 -10 8 -3 12 -2 9 4 -6 10 -25 14 -25 6z"/>
<path d="M1160 2229 c0 -5 5 -7 10 -4 6 3 10 8 10 11 0 2 -4 4 -10 4 -5 0 -10
-5 -10 -11z"/>
<path d="M1272 2228 c-21 -21 -13 -29 26 -26 25 2 37 8 37 18 0 19 -46 25 -63
8z m48 -5 c0 -5 -12 -9 -27 -10 -19 -1 -22 1 -12 8 17 11 39 12 39 2z"/>
<path d="M1768 2233 c7 -3 16 -2 19 1 4 3 -2 6 -13 5 -11 0 -14 -3 -6 -6z"/>
<path d="M1385 2222 c21 -15 13 -29 -13 -25 -23 3 -24 2 -7 -6 19 -8 18 -9 -7
-16 -16 -4 -28 -11 -28 -17 0 -5 4 -6 10 -3 6 4 7 -1 3 -11 -5 -14 -3 -16 11
-11 10 4 28 7 42 7 16 0 22 4 18 15 -5 11 -11 12 -25 4 -10 -5 -19 -6 -19 -1
0 5 11 14 25 20 14 6 25 16 25 21 0 6 6 8 14 5 8 -3 17 -1 21 5 3 6 0 12 -7
12 -7 1 -26 3 -43 5 -16 2 -25 0 -20 -4z"/>
<path d="M1885 2209 c-4 -6 -5 -12 -2 -15 2 -3 7 2 10 11 7 17 1 20 -8 4z"/>
<path d="M1440 2190 c-24 -8 -24 -8 7 -9 17 -1 35 4 38 9 7 11 -9 11 -45 0z"/>
<path d="M1790 2190 c0 -13 11 -13 30 0 12 8 11 10 -7 10 -13 0 -23 -4 -23
-10z"/>
<path d="M1650 2180 c0 -5 5 -10 11 -10 5 0 7 5 4 10 -3 6 -8 10 -11 10 -2 0
-4 -4 -4 -10z"/>
<path d="M1450 2170 c-19 -4 -29 -8 -22 -9 7 0 10 -5 7 -11 -4 -6 2 -7 17 -1
13 4 30 6 38 4 12 -4 12 -3 1 5 -11 8 -11 10 0 15 19 7 2 6 -41 -3z"/>
<path d="M939 2148 c0 -22 -1 -22 -9 -3 -7 16 -9 17 -9 3 -1 -17 16 -34 25
-25 10 9 12 47 3 47 -5 0 -9 -10 -10 -22z"/>
<path d="M1695 2150 c-3 -5 -1 -10 4 -10 6 0 11 5 11 10 0 6 -2 10 -4 10 -3 0
-8 -4 -11 -10z"/>
<path d="M816 2129 c2 -4 -1 -9 -7 -11 -7 -2 -10 -10 -8 -17 3 -9 10 -6 21 11
13 20 14 25 3 25 -8 0 -12 -4 -9 -8z"/>
<path d="M1349 2103 c-13 -16 -12 -17 4 -4 9 7 17 15 17 17 0 8 -8 3 -21 -13z"/>
<path d="M841 2103 c-1 -6 4 -15 9 -18 8 -5 8 -11 1 -19 -6 -7 -7 -17 -3 -21
4 -5 2 -5 -5 -1 -7 4 -10 13 -6 21 3 8 0 15 -5 15 -6 0 -9 -12 -6 -26 3 -19 1
-24 -8 -18 -10 6 -9 3 1 -9 15 -18 26 -23 16 -7 -4 6 6 10 23 10 16 0 35 6 41
14 16 20 3 46 -24 46 -13 0 -26 6 -28 13 -4 9 -6 9 -6 0z m36 -55 c-3 -7 -5
-2 -5 12 0 14 2 19 5 13 2 -7 2 -19 0 -25z"/>
<path d="M1255 2090 c-3 -5 -5 -10 -3 -11 29 -7 36 -5 31 7 -6 16 -19 18 -28
4z"/>
<path d="M1360 2085 c-7 -9 -8 -15 -2 -15 5 0 12 7 16 15 3 8 4 15 2 15 -2 0
-9 -7 -16 -15z"/>
<path d="M1311 2024 c0 -11 3 -14 6 -6 3 7 2 16 -1 19 -3 4 -6 -2 -5 -13z"/>
<path d="M1103 1996 c-9 -11 -9 -15 0 -19 7 -3 14 3 14 14 2 22 2 22 -14 5z"/>
<path d="M2475 1880 c3 -5 8 -10 11 -10 2 0 4 5 4 10 0 6 -5 10 -11 10 -5 0
-7 -4 -4 -10z"/>
<path d="M815 1830 c9 -31 25 -50 25 -29 0 7 -8 23 -16 34 -16 19 -16 19 -9
-5z"/>
<path d="M916 1793 c-6 -14 -5 -15 5 -6 7 7 10 15 7 18 -3 3 -9 -2 -12 -12z"/>
<path d="M855 1780 c-4 -6 -11 -8 -16 -5 -5 4 -9 0 -9 -7 0 -18 37 -20 44 -3
6 17 -10 30 -19 15z"/>
<path d="M715 1590 c3 -5 8 -10 11 -10 2 0 4 5 4 10 0 6 -5 10 -11 10 -5 0 -7
-4 -4 -10z"/>
<path d="M2388 1043 c-15 -17 -15 -19 8 -36 13 -10 24 -14 24 -9 0 6 -8 13
-17 16 -14 6 -15 9 -4 15 7 5 12 14 9 21 -2 8 -9 5 -20 -7z"/>
<path d="M2320 990 c0 -5 5 -10 10 -10 6 0 10 5 10 10 0 6 -4 10 -10 10 -5 0
-10 -4 -10 -10z"/>
<path d="M930 850 c0 -5 5 -10 10 -10 6 0 10 5 10 10 0 6 -4 10 -10 10 -5 0
-10 -4 -10 -10z"/>
<path d="M2100 766 c0 -2 7 -7 16 -10 8 -3 12 -2 9 4 -6 10 -25 14 -25 6z"/>
<path d="M1355 470 c-3 -6 1 -7 9 -4 18 7 21 14 7 14 -6 0 -13 -4 -16 -10z"/>
<path d="M1857 379 c-14 -8 -16 -14 -6 -25 19 -23 51 -18 47 8 -4 26 -17 31
-41 17z m33 -9 c0 -5 -7 -10 -16 -10 -8 0 -12 5 -9 10 3 6 10 10 16 10 5 0 9
-4 9 -10z"/>
<path d="M1345 370 c4 -6 11 -8 16 -5 14 9 11 15 -7 15 -8 0 -12 -5 -9 -10z"/>
<path d="M1805 260 c-3 -5 -1 -10 4 -10 6 0 11 5 11 10 0 6 -2 10 -4 10 -3 0
-8 -4 -11 -10z"/>
</g>
</svg>
